<?xml version="1.0" encoding="UTF-8" standalone="no"?>
<!DOCTYPE svg PUBLIC "-//W3C//DTD SVG 1.1//EN" "http://www.w3.org/Graphics/SVG/1.1/DTD/svg11.dtd">
<svg width="100%" height="100%" viewBox="0 0 570 425" version="1.1" xmlns="http://www.w3.org/2000/svg" xmlns:xlink="http://www.w3.org/1999/xlink" xml:space="preserve" xmlns:serif="http://www.serif.com/" style="fill-rule:evenodd;clip-rule:evenodd;stroke-linejoin:round;stroke-miterlimit:2;">
    <g transform="matrix(1,0,0,1,-104.067,-126.437)">
        <g transform="matrix(1,0,0,1,-835,-425)">
            <g>
                <g transform="matrix(0.325581,0,0,0.325581,870.138,437.336)">
                    <path d="M920.942,999.067C920.942,1025.75 912.471,1048.94 895.53,1068.63C876.259,1091.19 850.899,1102.46 819.451,1102.46L819.451,1071.97C840.205,1071.97 857.199,1064.35 870.435,1049.1C882.823,1035.02 889.018,1018.34 889.018,999.067C889.018,978.632 881.976,961.372 867.894,947.29C852.858,932.36 833.428,924.895 809.604,924.895L808.016,924.895L808.016,1130.74L777.362,1130.74L777.362,1102.46L773.55,1102.46C742.102,1102.46 716.081,1092.49 695.486,1072.53C674.892,1052.57 664.594,1027.97 664.594,998.75C664.594,972.279 673.171,949.09 690.324,929.183C709.596,906.63 734.743,895.353 765.768,895.353L765.768,925.848C744.908,925.848 727.861,933.525 714.625,948.878C702.448,963.067 696.36,979.691 696.36,998.75C696.36,1019.29 703.19,1036.5 716.849,1050.37C731.673,1065.4 751.208,1072.92 775.456,1072.92L777.362,1072.92L777.362,868.035L808.016,868.035L808.016,895.353L811.192,895.353C843.593,895.353 869.985,905.306 890.368,925.213C910.751,945.119 920.942,969.737 920.942,999.067Z" style="fill:rgb(4,53,140);fill-rule:nonzero;"/>
                </g>
                <g transform="matrix(0.325581,0,0,0.325581,870.138,437.336)">
                    <path d="M1116.62,1122L1086.12,1122L1086.12,944.431C1086.12,940.301 1085.22,938.237 1083.42,938.237C1081.94,938.237 1079.66,941.36 1076.59,947.607C1074.69,951.525 1073.52,953.908 1073.1,954.755L1006.39,1095C1001.42,1105.59 997.179,1112.74 993.685,1116.44C988.497,1122.27 981.985,1125.18 974.149,1125.18C965.043,1125.18 958.743,1121.74 955.249,1114.85C952.708,1109.66 951.437,1101.3 951.437,1089.76L951.437,894.241L981.932,894.241L981.614,1072.61L981.614,1076.42C982.038,1078.01 982.938,1078.8 984.314,1078.8C985.585,1078.8 988.814,1073.24 994.003,1062.12L1060.71,921.242C1065.69,910.653 1070.66,902.977 1075.64,898.212C1080.62,893.447 1086.6,891.065 1093.59,891.065C1102.27,891.065 1108.41,894.506 1112.01,901.389C1115.08,907.318 1116.62,915.683 1116.62,926.483L1116.62,1122Z" style="fill:rgb(4,53,140);fill-rule:nonzero;"/>
                </g>
                <g transform="matrix(0.325581,0,0,0.325581,870.138,437.336)">
                    <path d="M1314.2,1081.66L1283.7,1081.66L1283.7,894.241L1314.2,894.241L1314.2,1081.66ZM1342.95,1122L1235.58,1122C1222.13,1122 1211.91,1121.26 1204.93,1119.78C1193.49,1117.13 1183.64,1112.02 1175.38,1104.45C1167.12,1096.88 1161.54,1088.14 1158.63,1078.24C1155.72,1068.34 1154.26,1056.88 1154.26,1043.86L1154.26,894.241L1184.76,894.241L1184.76,1039.41C1184.76,1049.15 1185.07,1055.88 1185.71,1059.58C1187.3,1068.26 1190.63,1075.36 1195.71,1080.86C1200.8,1086.37 1207.26,1090.02 1215.09,1091.82C1219.86,1092.88 1227.64,1093.41 1238.44,1093.41L1342.95,1093.41L1342.95,1122Z" style="fill:rgb(4,53,140);fill-rule:nonzero;"/>
                </g>
                <g transform="matrix(0.325581,0,0,0.325581,870.138,437.336)">
                    <path d="M1521.47,1057.52C1521.47,1075.52 1516.02,1090.29 1505.11,1101.83C1492.4,1115.28 1473.34,1122 1447.93,1122L1407.27,1122L1407.27,1093.41L1446.34,1093.41C1457.99,1093.41 1466.88,1091.98 1473.03,1089.12C1484.89,1083.51 1490.82,1072.45 1490.82,1055.93C1490.82,1044.49 1487.03,1035.41 1479.46,1028.69C1471.89,1021.97 1461.8,1018.6 1449.2,1018.6L1407.27,1018.6L1407.27,990.014L1437.93,990.014C1449.57,990.014 1459.58,987.076 1467.94,981.199C1476.31,975.323 1480.49,966.984 1480.49,956.184C1480.49,945.278 1476.57,936.463 1468.74,929.739C1460.9,923.016 1451.27,919.654 1439.83,919.654C1427.65,919.654 1417.54,923.466 1409.5,931.089C1400.18,939.772 1395.52,951.896 1395.52,967.461L1395.52,1122L1365.02,1122L1365.02,966.825C1365.02,944.484 1371.85,926.272 1385.51,912.189C1399.17,898.106 1416.38,891.065 1437.13,891.065C1460.64,891.065 1479.22,897.894 1492.88,911.554C1504.95,923.73 1510.99,938.342 1510.99,955.39C1510.99,967.355 1508.71,977.149 1504.16,984.773C1500.77,990.808 1495.37,995.891 1487.96,1000.02C1498.55,1005.42 1506.78,1013.18 1512.65,1023.29C1518.53,1033.4 1521.47,1044.81 1521.47,1057.52Z" style="fill:rgb(4,53,140);fill-rule:nonzero;"/>
                </g>
                <g transform="matrix(0.325581,0,0,0.325581,870.138,437.336)">
                    <path d="M1682.68,1122L1654.09,1122L1654.09,1007.49L1653.14,1007.8L1647.58,1016.86L1590.88,1100.56C1587.28,1106.17 1583.62,1111.68 1579.92,1117.08C1575.36,1122.48 1570.12,1125.18 1564.19,1125.18C1557.1,1125.18 1552.23,1122.37 1549.58,1116.76C1548.1,1113.58 1547.36,1109.24 1547.36,1103.74L1547.36,965.873L1575.95,965.873L1575.95,1081.34L1576.9,1081.02L1582.46,1071.97L1638.68,987.314C1645.67,976.726 1649.38,971.22 1649.8,970.796C1654.36,965.29 1659.65,962.537 1665.68,962.537C1671.4,962.537 1675.66,964.284 1678.47,967.778C1681.28,971.273 1682.68,976.037 1682.68,982.073L1682.68,1122Z" style="fill:rgb(4,53,140);fill-rule:nonzero;"/>
                </g>
                <g transform="matrix(0.325581,0,0,0.325581,874.138,437.336)">
                    <path d="M1950.14,1122L1918.22,1122L1895.83,937.284L1846.91,1098.65C1844.15,1107.97 1841.56,1114.22 1839.12,1117.39C1835.42,1122.58 1830.23,1125.18 1823.56,1125.18C1816.99,1125.18 1811.91,1122.58 1808.31,1117.39C1805.66,1113.79 1802.91,1107.55 1800.05,1098.65L1751.29,937.284L1728.9,1122L1696.97,1122L1722.07,923.307C1723.13,914.201 1725.09,907.371 1727.94,902.818C1732.5,894.983 1739.54,891.065 1749.07,891.065C1757.33,891.065 1763.84,894.4 1768.61,901.071C1771.57,905.2 1774.59,912.401 1777.66,922.671L1823.56,1073.24L1869.46,922.671C1873.27,909.859 1877.35,901.389 1881.69,897.259C1886.03,893.13 1891.48,891.065 1898.05,891.065C1907.58,891.065 1914.62,894.877 1919.17,902.5C1921.82,907.053 1923.78,913.989 1925.05,923.307L1950.14,1122Z" style="fill:rgb(4,53,140);fill-rule:nonzero;"/>
                </g>
            </g>
            <path d="M1355.61,823.434C1329.85,911.796 1248.2,976.437 1151.57,976.437C1034.29,976.437 939.067,881.219 939.067,763.937C939.067,646.655 1034.29,551.437 1151.57,551.437C1249.13,551.437 1331.42,617.329 1356.34,707L1342.81,707C1318.28,624.597 1241.89,564.437 1151.57,564.437C1041.46,564.437 952.067,653.83 952.067,763.937C952.067,874.044 1041.46,963.437 1151.57,963.437C1240.96,963.437 1316.69,904.52 1342.03,823.434L1355.61,823.434Z" style="fill:rgb(4,53,140);"/>
            <g transform="matrix(1,0,0,1,112,-1.13687e-13)">
                <path d="M1355.61,823.434C1329.85,911.796 1248.2,976.437 1151.57,976.437C1034.29,976.437 939.067,881.219 939.067,763.937C939.067,646.655 1034.29,551.437 1151.57,551.437C1249.13,551.437 1331.42,617.329 1356.34,707L1342.81,707C1318.28,624.597 1241.89,564.437 1151.57,564.437C1041.46,564.437 952.067,653.83 952.067,763.937C952.067,874.044 1041.46,963.437 1151.57,963.437C1240.96,963.437 1316.69,904.52 1342.03,823.434L1355.61,823.434Z" style="fill:rgb(4,53,140);"/>
            </g>
            <rect x="1124" y="698" width="337" height="9" style="fill:rgb(4,53,140);"/>
            <g transform="matrix(1,0,0,1,0,125.434)">
                <rect x="1124" y="698" width="337" height="9" style="fill:rgb(4,53,140);"/>
            </g>
        </g>
    </g>
</svg>
