<?xml version="1.0" encoding="UTF-8" standalone="no"?>
<!DOCTYPE svg PUBLIC "-//W3C//DTD SVG 1.1//EN" "http://www.w3.org/Graphics/SVG/1.1/DTD/svg11.dtd">
<svg width="100%" height="100%" viewBox="0 0 454 134" version="1.1" xmlns="http://www.w3.org/2000/svg" xmlns:xlink="http://www.w3.org/1999/xlink" xml:space="preserve" xmlns:serif="http://www.serif.com/" style="fill-rule:evenodd;clip-rule:evenodd;stroke-linejoin:round;stroke-miterlimit:2;">
    <g transform="matrix(1,0,0,1,-21.9997,-7.0004)">
        <g transform="matrix(1,0,0,1,-0.3221,6.99992)">
            <g id="g60" transform="matrix(1,0,0,1,-60.2403,-818.014)">
                <g id="g47" transform="matrix(0.802825,0,0,0.802825,-1940.8,715.966)">
                    <g id="g48">
                        <g id="g471" serif:id="g47">
                            <g id="g1" transform="matrix(0.283717,0,0,0.283717,2724.21,126.698)">
                                <path id="path1" d="M244.551,153.342L326.416,294.532L245.075,435.418L81.869,435.115L0.002,293.925L81.342,153.038L244.551,153.342Z" style="fill:rgb(102,194,165);"/>
                            </g>
                            <g id="g2" transform="matrix(0.283717,0,0,0.283717,2724.21,40.687)">
                                <path id="path2" d="M508.173,304.917L590.039,446.11L508.698,586.997L345.49,586.692L263.623,445.502L344.964,304.616L508.173,304.917Z" style="fill:rgb(252,141,98);"/>
                            </g>
                            <g id="g3" transform="matrix(0.283717,0,0,0.283717,2724.21,41.9703)">
                                <path id="path3" d="M507.63,530.19L531.16,530.19L531.16,523.48L507.63,523.48L507.63,530.19ZM325.53,530.19L349.05,530.19L349.05,523.48L325.53,523.48L325.53,530.19ZM471.21,530.19L494.74,530.19L494.74,523.48L471.21,523.48L471.21,530.19ZM398.37,530.19L421.9,530.19L421.9,526.83L398.37,526.83L398.37,530.19ZM458.32,530.19L434.79,530.19L434.79,518.31L458.32,518.31L458.32,530.19ZM385.47,530.19L361.95,530.19L361.95,519.28L385.47,519.28L385.47,530.19ZM398.37,516.9L421.9,516.9L421.9,505.02L398.37,505.02L398.37,516.9ZM471.21,516.9L494.74,516.9L494.74,505.02L471.21,505.02L471.21,516.9ZM325.53,516.9L349.05,516.9L349.05,505.02L325.53,505.02L325.53,516.9ZM507.63,516.9L531.16,516.9L531.16,505.02L507.63,505.02L507.63,516.9ZM385.47,511.9L361.95,511.9L361.95,507.16L385.47,507.16L385.47,511.9ZM458.32,508.89L434.79,508.89L434.79,503.7L458.32,503.7L458.32,508.89ZM398.37,500.65L421.9,500.65L421.9,495.47L398.37,495.47L398.37,500.65ZM325.53,500.65L349.05,500.65L349.05,495.47L325.53,495.47L325.53,500.65ZM385.47,499.85L361.95,499.85L361.95,492.26L385.47,492.26L385.47,499.85ZM471.21,499.72L494.74,499.72L494.74,488.35L471.21,488.35L471.21,499.72ZM507.63,494.67L531.16,494.67L531.16,489.07L507.63,489.07L507.63,494.67ZM458.32,492.6L434.79,492.6L434.79,480.72L458.32,480.72L458.32,492.6ZM325.53,491.1L349.05,491.1L349.05,479.22L325.53,479.22L325.53,491.1ZM385.47,484.19L361.95,484.19L361.95,473.28L385.47,473.28L385.47,484.19ZM471.21,481L494.74,481L494.74,477.62L471.21,477.62L471.21,481ZM507.63,477.62L531.16,477.62L531.16,467.8L507.63,467.8L507.63,477.62ZM398.37,477.62L421.9,477.62L421.9,465.74L398.37,465.74L398.37,477.62ZM458.32,475.82L434.79,475.82L434.79,469.11L458.32,469.11L458.32,475.82ZM471.21,471.68L494.74,471.68L494.74,469.11L471.21,469.11L471.21,471.68ZM385.47,469.61L361.95,469.61L361.95,465.52L385.47,465.52L385.47,469.61ZM507.63,463.1L531.16,463.1L531.16,451.22L507.63,451.22L507.63,463.1ZM471.21,461.6L494.74,461.6L494.74,452.72L471.21,452.72L471.21,461.6ZM325.53,461.6L349.05,461.6L349.05,452.72L325.53,452.72L325.53,461.6ZM398.37,456.06L421.9,456.06L421.9,449.35L398.37,449.35L398.37,456.06ZM471.21,449.71L494.74,449.71L494.74,444.97L471.21,444.97L471.21,449.71ZM325.53,444.66L349.05,444.66L349.05,436.39L325.53,436.39L325.53,444.66ZM398.37,444.66L421.9,444.66L421.9,436.39L398.37,436.39L398.37,444.66ZM507.63,442L531.16,442L531.16,437.56L507.63,437.56L507.63,442ZM507.63,434.56L531.16,434.56L531.16,426.29L507.63,426.29L507.63,434.56ZM398.37,427.6L421.9,427.6L421.9,424.24L398.37,424.24L398.37,427.6ZM398.37,419.87L421.9,419.87L421.9,414.69L398.37,414.69L398.37,419.87ZM347.05,383.41L347.26,383.41C353.06,393.1 364.65,403.2 379.75,399.94C381.97,399.46 384.12,398.68 386.04,397.69C388.82,396.26 391.14,394.42 393.21,392.39C395.95,389.72 398.77,386.56 400.51,383.41C405.45,388.1 407.87,393.67 414.55,397.33C416.53,398.42 418.72,399.32 421.05,399.83C436.37,403.21 448.02,393.33 453.97,383.41L454.18,383.41C459.84,392.85 470.37,402.24 485,400.24C487.21,399.94 489.31,399.28 491.28,398.47C493.9,397.39 496.18,395.86 498.19,394.19C501.85,391.13 505.15,387.21 507.43,383.41L507.64,383.41C511.05,389.1 516.68,395.61 523.99,398.55C526.92,399.73 529.95,400.3 533.22,400.53C534.72,400.63 536.55,400.04 536.06,398.6C535.69,397.53 534.33,397.67 533.22,397.57C530.57,397.32 528.24,396.83 525.88,395.85C520.07,393.45 516.33,388.82 513.05,384.56C512.18,383.42 510.09,381.49 510.05,380.15C510.01,378.81 512.27,376.71 513.13,375.58C516.46,371.24 520.35,366.59 526.3,364.2C528.34,363.37 530.5,362.88 532.8,362.71C534,362.62 535.49,362.81 536.02,361.7C536.8,360.1 534.71,359.75 533.22,359.75C529.86,359.75 526.73,360.56 523.78,361.75C515.83,364.95 512.11,371.36 507.43,376.89C505.75,373.77 502.96,370.74 500.32,368.07C498.32,366.05 495.93,364.04 493.17,362.64C491.21,361.64 489.13,360.87 486.88,360.36C471.95,356.9 459.61,367.08 454.18,376.89L453.97,376.89C448.7,367.04 436.29,357.05 421.47,360.29C419.34,360.75 417.26,361.47 415.39,362.42C412.58,363.84 410.17,365.7 408.1,367.75C405.33,370.48 402.44,373.66 400.72,376.89L400.51,376.89C395.22,367.04 382.65,356.93 367.8,360.36C365.64,360.85 363.61,361.57 361.72,362.54C359.05,363.91 356.65,365.79 354.68,367.75C351.92,370.5 349,373.65 347.26,376.89C342.47,371.24 338.75,364.98 330.7,361.65C327.87,360.48 324.68,359.75 321.47,359.75C319.98,359.75 317.89,360.1 318.66,361.7C319.19,362.81 320.69,362.62 321.89,362.71C324.5,362.91 326.94,363.55 329.23,364.53C334.71,366.89 338.24,371.4 341.45,375.42C342.41,376.62 344.45,378.57 344.64,379.99C344.81,381.27 342.57,383.32 341.78,384.39C338.45,388.93 334.35,393.7 328.18,396.11C325.94,396.98 323.72,397.34 321.26,397.57C320.2,397.67 318.97,397.6 318.63,398.6C318.14,400.02 319.98,400.63 321.47,400.53C324.74,400.3 327.77,399.73 330.7,398.55C338.01,395.61 343.63,389.11 347.05,383.41ZM425.46,362.73C435.77,361.77 442.91,368.2 447.72,374.44C448.78,375.81 451.74,378.52 451.68,380.15C451.62,381.82 448.82,384.46 447.69,385.86C443,391.69 437.61,396.72 428.39,397.57C418.61,398.47 411.75,391.71 407.15,386.03C405.99,384.6 403.08,381.86 403.05,380.15C403.02,378.56 405.68,376.1 406.71,374.76C411.04,369.19 416.58,363.56 425.46,362.73ZM371.79,362.73C382.14,361.74 389.28,368.01 394.18,374.28C395.32,375.74 398.04,378.27 398.2,379.99C398.34,381.51 395.59,384.09 394.59,385.37C390.5,390.65 385.07,396.52 376.61,397.4C365.99,398.52 358.83,392.52 353.72,386.03C352.54,384.54 349.71,381.91 349.58,380.15C349.47,378.6 352.26,376.06 353.25,374.76C357.49,369.27 363.04,363.57 371.79,362.73ZM478.71,362.73C489.04,361.75 495.96,367.92 500.94,374.11C502.15,375.61 504.93,378.21 505.11,379.99C505.27,381.44 502.65,383.82 501.74,385.05C497.76,390.43 492.06,396.53 483.53,397.4C472.88,398.5 465.74,392.57 460.63,386.03C459.45,384.5 456.64,381.95 456.49,380.15C456.37,378.62 459.17,376.05 460.16,374.76C464.41,369.26 469.94,363.57 478.71,362.73ZM373.04,380.15L373.04,392.07C373.04,392.87 372.47,395.61 374.1,395.61C375.73,395.61 375.14,392.88 375.14,392.07L375.14,380.15L373.04,380.15ZM320.05,364.82C319.32,365.12 319.38,365.89 319.37,366.44C319.36,367.91 319.37,369.38 319.37,370.85C319.37,377 319.58,383.13 319.58,389.29C319.58,390.98 319.54,392.66 319.59,394.35C319.6,394.89 319.78,395.82 320.8,395.53C321.61,395.29 321.47,394.39 321.47,393.86L321.47,370.19C321.47,368.69 321.63,367.12 321.46,365.63C321.39,365.07 320.86,364.48 320.05,364.82ZM480.27,364.81C479.63,365.14 479.76,365.93 479.76,366.44L479.76,389.29C479.76,391.01 479.57,392.8 479.77,394.51C479.83,395.06 480.32,395.81 481.19,395.48C482,395.17 481.85,394.27 481.85,393.7L481.85,370.03C481.85,368.56 482.12,366.91 481.82,365.46C481.7,364.9 480.99,364.44 480.27,364.81ZM426.98,364.77C426.26,365.01 426.3,365.77 426.3,366.28C426.27,367.75 426.3,369.22 426.3,370.68L426.3,389.45C426.3,391.08 426.17,392.73 426.3,394.35C426.35,394.9 426.78,395.82 427.73,395.47C428.49,395.2 428.39,394.4 428.39,393.86L428.39,370.85C428.39,369.17 428.48,367.47 428.39,365.79C428.35,365.19 427.95,364.45 426.98,364.77ZM534.27,364.64C533.41,364.79 533.43,365.58 533.42,366.11C533.41,367.53 533.42,368.94 533.42,370.36L533.42,389.13C533.42,390.81 533.36,392.5 533.43,394.19C533.45,394.77 533.67,395.55 534.66,395.42C535.59,395.31 535.52,394.41 535.52,393.86C535.53,392.17 535.52,390.49 535.52,388.8L535.52,370.19C535.52,368.69 535.68,367.12 535.51,365.62C535.45,365.11 535.08,364.5 534.27,364.64ZM363.82,380.15L363.82,390.11C363.82,390.85 363.36,393 364.87,393C366.4,393 365.92,390.86 365.92,390.11L365.92,380.15L363.82,380.15ZM329.29,367.43C328.13,367.98 328.81,371.51 328.81,372.48L328.81,387.99C328.81,389.33 328.67,390.73 328.82,392.07C328.88,392.63 329.4,393.24 330.23,392.87C331.61,392.27 330.9,388.89 330.9,387.82C330.9,382.64 330.7,377.49 330.7,372.32C330.7,370.95 330.95,369.42 330.66,368.08C330.56,367.57 329.98,367.1 329.29,367.43ZM382.48,380.15L382.48,390.11C382.48,390.79 382.01,393.1 383.52,392.97C384.85,392.86 384.36,390.65 384.36,389.94L384.36,380.15L382.48,380.15ZM471.02,367.42C469.85,368.01 470.53,371.48 470.53,372.48L470.53,387.99C470.53,389.32 470.36,390.74 470.55,392.06C470.63,392.62 471.16,393.2 471.97,392.87C473.33,392.31 472.63,388.86 472.63,387.82L472.63,372.15C472.63,370.84 472.87,369.37 472.6,368.08C472.48,367.5 471.75,367.06 471.02,367.42ZM436.57,367.24C434.81,367.37 435.52,371.03 435.52,371.99L435.52,387.66C435.52,389.05 435.34,390.52 435.54,391.9C435.62,392.41 435.97,393.03 436.77,392.95C438.28,392.79 437.62,389.04 437.62,388.15L437.62,372.64C437.62,371.23 437.67,369.81 437.61,368.4C437.59,367.87 437.46,367.18 436.57,367.24ZM489.49,367.42C488.29,368.04 488.98,371.46 488.98,372.48C488.98,377.66 489.19,382.81 489.19,387.99C489.19,389.33 489.05,390.73 489.2,392.06C489.26,392.59 489.78,393.22 490.57,392.85C491.75,392.28 491.08,388.8 491.08,387.82L491.08,372.15C491.08,370.84 491.32,369.37 491.05,368.08C490.93,367.51 490.21,367.05 489.49,367.42ZM417.92,367.25C416.38,367.52 417.07,371.21 417.07,372.15L417.07,387.66C417.07,389.05 416.89,390.52 417.09,391.9C417.16,392.39 417.53,393.03 418.31,392.89C419.85,392.61 419.17,388.93 419.17,387.99L419.17,372.48C419.17,371.08 419.31,369.63 419.15,368.24C419.1,367.73 418.73,367.11 417.92,367.25ZM524.69,367.26C523.52,367.84 524.2,371.33 524.2,372.32L524.2,387.66C524.2,389.06 524.05,390.51 524.21,391.9C524.28,392.47 524.78,393.04 525.62,392.78C526.37,392.55 526.29,391.76 526.3,391.25L526.3,371.5C526.3,370.8 526.84,366.21 524.69,367.26ZM338.48,374.94C337.54,375.33 337.82,376.54 337.82,377.21L337.82,383.74C337.82,384.34 337.85,386.02 339.26,385.51C340.21,385.17 339.92,383.9 339.92,383.25L339.92,376.56C339.92,375.95 339.86,374.38 338.48,374.94ZM393.59,380.15L391.91,380.31L393.8,379.99C393.8,378.6 394.21,376.76 393.71,375.42C393.43,374.68 392.09,374.38 391.77,375.27C390.95,377.52 391.7,380.75 391.7,383.09C391.7,383.74 391.37,385.13 392.36,385.43C393.24,385.7 393.55,385.11 393.59,384.56C393.67,383.09 393.59,381.61 393.59,380.15ZM498.78,374.93C498.11,375.34 498.41,376.64 498.41,377.21C498.41,379.45 498.16,381.66 498.21,383.9C498.22,384.53 498.58,385.94 499.82,385.37C500.73,384.94 500.51,383.62 500.51,382.92C500.51,380.57 500.55,378.09 500.29,375.75C500.23,375.21 499.57,374.45 498.78,374.93ZM354.59,380.15C354.59,381.12 353.87,385.49 355.64,385.49C357.41,385.49 356.69,381.11 356.69,380.15L354.59,380.15ZM445.61,374.74C444.65,374.99 444.95,376.29 444.95,376.89L444.95,383.58C444.95,384.17 444.79,385.8 446.18,385.43C447.15,385.17 446.84,383.85 446.84,383.25C446.84,381.01 447.06,378.8 447.05,376.56C447.05,375.92 446.97,374.39 445.61,374.74ZM461.98,374.74C460.99,375 461.31,376.43 461.31,377.05L461.31,383.58C461.31,384.24 461.13,385.69 462.54,385.46C463.7,385.26 463.4,383.92 463.4,383.25L463.4,376.56C463.4,375.93 463.37,374.38 461.98,374.74ZM408.52,374.74C407.53,375 407.85,376.43 407.85,377.05L407.85,383.58C407.85,384.24 407.67,385.69 409.08,385.46C410.23,385.26 409.94,383.92 409.94,383.25L409.94,376.56C409.94,375.93 409.91,374.38 408.52,374.74ZM515.46,374.77C514.67,375.17 514.98,376.43 514.98,377.05L514.98,383.74C514.98,384.36 515,385.92 516.4,385.34C517.37,384.93 517.07,383.63 517.07,382.92C517.07,380.59 517.16,378.24 517.07,375.91C517.04,375.26 516.56,374.22 515.46,374.77ZM382.48,379.99L384.57,379.99L384.57,370.19C384.57,369.41 385.02,367.16 383.32,367.3C381.96,367.42 382.48,369.61 382.48,370.36L382.48,379.99ZM363.82,379.99L365.92,379.99L365.92,370.19C365.92,369.46 366.38,367.31 364.87,367.31C363.39,367.31 363.82,369.48 363.82,370.19L363.82,379.99ZM354.59,379.99L356.69,379.99C356.69,379.05 357.4,374.74 355.64,374.74C353.89,374.74 354.59,379.05 354.59,379.99ZM373.25,379.99L375.14,379.99L375.14,368.24C375.14,367.5 375.7,364.59 374.1,364.72C372.71,364.84 373.25,367.49 373.25,368.24L373.25,379.99Z" style="fill:white;fill-rule:nonzero;"/>
                            </g>
                            <g id="g4" transform="matrix(0.283717,0,0,0.283717,2724.21,213.231)">
                                <path id="path4" d="M508.681,0.842L590.546,142.032L509.205,282.918L345.999,282.615L264.132,141.425L345.472,0.538L508.681,0.842Z" style="fill:rgb(141,160,203);"/>
                            </g>
                            <g id="g5" transform="matrix(0.283717,0,0,0.283717,2724.21,213.066)">
                                <path id="path5" d="M414.82,47L411.68,37.4C411.28,36.17 411.38,34.86 411.96,33.71C412.55,32.55 413.55,31.7 414.77,31.3L424.42,28.14C426.96,27.32 429.69,28.71 430.51,31.24L433.65,40.84C436.76,40.8 439.68,42.77 440.7,45.88L442.41,51.12C442.87,52.54 442.1,54.06 440.68,54.53C439.25,54.99 437.74,54.21 437.27,52.8L435.56,47.56C435.24,46.56 434.15,46.01 433.15,46.34L418.47,51.14C417.99,51.3 417.59,51.63 417.36,52.09C417.13,52.55 417.09,53.06 417.25,53.55L421.24,65.74C427.49,65.04 433.63,68.77 435.66,74.99C436.79,78.42 436.5,82.09 434.87,85.32C433.65,87.73 431.78,89.67 429.48,90.97L443.51,133.88L461.82,127.89L441.42,65.49C440.96,64.07 441.73,62.54 443.15,62.08C444.57,61.62 446.1,62.39 446.56,63.81L467.79,128.74C467.79,128.75 467.8,128.76 467.8,128.78L469.22,133.11C470.15,135.98 468.58,139.08 465.71,140.02L447.54,145.95C446.97,146.14 446.4,146.23 445.84,146.23C443.53,146.23 441.38,144.76 440.63,142.45L439.23,138.18C439.23,138.16 439.22,138.14 439.21,138.12L424.28,92.46C423.79,92.52 423.29,92.54 422.8,92.54C419.45,92.54 416.23,91.27 413.78,89.04C390.28,95.79 373.98,117.31 373.98,141.87C373.98,160.04 382.83,176.81 397.77,187.13C401.35,184.36 405.84,182.72 410.7,182.72C419.93,182.72 427.81,188.65 430.72,196.9C446.79,196.4 461.99,188.75 472.05,176.13C469.76,173.52 468.36,170.09 468.36,166.35C468.36,165.28 468.48,164.22 468.72,163.17L449.63,168.56C449.27,168.66 448.91,168.71 448.55,168.71C447.88,168.71 447.21,168.54 446.61,168.21C445.69,167.69 445.02,166.84 444.73,165.82L444,163.21C443.71,162.19 443.83,161.12 444.35,160.19C444.87,159.27 445.72,158.6 446.74,158.31L511.76,139.94C512.79,139.65 513.86,139.78 514.78,140.3C515.71,140.82 516.38,141.66 516.67,142.68L517.4,145.29C517.69,146.31 517.57,147.38 517.05,148.31C516.53,149.23 515.68,149.9 514.66,150.19L493.92,156.05C496.56,158.79 498.07,162.47 498.07,166.35C498.07,173.36 493.19,179.25 486.66,180.8C474.52,199.83 454.27,211.44 431.91,212.26L431.91,235.35L461.38,235.35C462.87,235.35 464.08,236.57 464.08,238.06C464.08,239.55 462.87,240.76 461.38,240.76L375,240.76C370.29,240.76 366.46,244.63 366.54,249.35C366.55,250.46 367.53,251.32 368.63,251.32L493.69,251.32C494.79,251.32 495.77,250.46 495.78,249.35C495.86,244.63 492.04,240.76 487.32,240.76L479.45,240.76C477.96,240.76 476.75,239.55 476.75,238.06C476.75,236.57 477.96,235.35 479.45,235.35L487.32,235.35C495.03,235.35 501.29,241.67 501.19,249.4C501.14,253.47 497.76,256.72 493.69,256.72L368.63,256.72C364.56,256.72 361.18,253.47 361.13,249.4C361.03,241.67 367.29,235.35 375,235.35L389.49,235.35L389.49,203.93C389.49,202.47 389.63,201.06 389.91,199.69C371.97,186.9 361.32,166.32 361.32,144.25C361.32,114.36 381,87.93 409.44,79.23C409.43,74.48 411.98,70 416.16,67.61L412.11,55.23C411.09,52.12 412.28,48.8 414.82,47ZM426.51,235.35L426.51,203.93C426.51,195.21 419.41,188.12 410.7,188.12C401.98,188.12 394.89,195.21 394.89,203.93L394.89,235.35L426.51,235.35ZM402,204.92C402,209.73 405.89,213.62 410.7,213.62C415.5,213.62 419.4,209.73 419.4,204.92C419.4,200.11 415.5,196.22 410.7,196.22C405.89,196.22 402,200.11 402,204.92ZM475.95,179.3C465.17,192.8 448.99,201.07 431.81,201.88C431.88,202.55 431.91,203.24 431.91,203.93L431.91,207.23C451.4,206.46 469.14,196.84 480.5,180.96C478.87,180.65 477.34,180.09 475.95,179.3ZM410.63,84.7C410.55,84.53 410.48,84.36 410.41,84.18C384.34,92.4 366.34,116.75 366.34,144.25C366.34,164.19 375.72,182.8 391.6,194.7C392.29,193.27 393.14,191.93 394.13,190.7C378.31,179.4 368.97,161.38 368.97,141.87C368.97,115.68 385.94,92.66 410.65,84.75L410.63,84.7ZM484.98,176.03C489.56,175.19 493.05,171.17 493.05,166.35C493.05,163.46 491.78,160.74 489.61,158.88L473.88,163.32C473.55,164.31 473.38,165.33 473.38,166.35C473.38,169.73 475.09,172.71 477.69,174.48C478.82,175.25 480.12,175.77 481.54,176.03C481.93,176.1 482.28,176.14 482.62,176.17C482.82,176.18 483.02,176.19 483.22,176.19C483.31,176.19 483.4,176.18 483.49,176.18C483.86,176.17 484.27,176.12 484.73,176.05C484.82,176.04 484.9,176.03 484.98,176.03ZM512.81,143.65L447.71,162.16L448.44,164.77C448.46,164.82 448.54,164.86 448.58,164.85L513.69,146.34L512.81,143.65ZM463.5,133.03L445.19,139.01L445.76,140.77C445.77,140.8 445.81,140.82 445.84,140.82L445.86,140.82L464.08,134.79L463.5,133.03ZM424.53,87.34C424.77,87.16 425.03,87.02 425.32,86.93C427.38,86.25 429.07,84.81 430.05,82.88C431.03,80.94 431.2,78.73 430.53,76.67C429.85,74.6 428.41,72.92 426.47,71.94C424.53,70.95 422.33,70.78 420.26,71.46C419.97,71.56 419.67,71.6 419.38,71.59C417.64,72.37 416.23,73.71 415.36,75.43C414.58,76.96 414.3,78.67 414.54,80.34C414.59,80.49 414.63,80.65 414.66,80.8C414.72,81.12 414.76,81.43 414.86,81.74L414.87,81.78C414.97,82.07 415.07,82.35 415.19,82.61L415.2,82.63C415.52,83.34 415.94,84 416.46,84.6C416.49,84.63 416.51,84.67 416.54,84.7C418.49,86.91 421.54,87.98 424.53,87.34ZM417.26,81C418.26,84.06 421.54,85.73 424.6,84.73C427.65,83.73 429.32,80.44 428.32,77.38C427.32,74.33 424.04,72.66 420.98,73.66C417.93,74.66 416.26,77.95 417.26,81ZM428.78,42.08L425.8,32.97L416.51,36.01L419.49,45.12L428.78,42.08Z" style="fill:white;fill-rule:nonzero;"/>
                            </g>
                            <g id="g6" transform="matrix(0.283717,0,0,0.283717,2724.21,89.816)">
                                <path id="path6" d="M595.111,382.826C594.444,382.826 593.778,382.78 593.111,382.692C592.444,382.605 591.711,382.471 590.911,382.295L591.378,376.362C592.089,376.537 592.8,376.625 593.511,376.625C595.467,376.625 597.022,375.846 598.178,374.294C599.334,372.737 600.189,370.382 600.744,367.226C601.3,364.071 601.667,360.092 601.845,355.292L602.578,335.625L635.444,335.625L635.444,382.295L628.911,382.295L628.911,339.692L630.511,341.424L606.845,341.424L608.311,339.625L607.778,355.091C607.644,359.715 607.333,363.762 606.845,367.226C606.356,370.691 605.622,373.583 604.644,375.893C603.667,378.202 602.411,379.939 600.878,381.094C599.344,382.249 597.422,382.826 595.111,382.826Z" style="fill-rule:nonzero;"/>
                            </g>
                            <g id="g7" transform="matrix(0.283717,0,0,0.283717,2724.21,92.8992)">
                                <path id="path7" d="M670.578,371.428L670.578,363.958L670.245,362.561L670.245,349.828C670.245,347.116 669.456,345.018 667.878,343.528C666.3,342.038 663.933,341.291 660.778,341.291C658.689,341.291 656.645,341.636 654.644,342.327C652.644,343.018 650.956,343.935 649.578,345.095L646.911,340.296C648.733,338.826 650.922,337.703 653.477,336.924C656.034,336.151 658.711,335.759 661.511,335.759C666.356,335.759 670.089,336.94 672.711,339.296C675.333,341.646 676.645,345.25 676.645,350.091L676.645,371.428L670.578,371.428ZM658.978,371.825C656.356,371.825 654.056,371.382 652.078,370.495C650.1,369.603 648.577,368.371 647.511,366.794C646.444,365.216 645.911,363.427 645.911,361.427C645.911,359.515 646.367,357.782 647.278,356.225C648.189,354.669 649.678,353.426 651.745,352.493C653.811,351.56 656.6,351.091 660.111,351.091L671.311,351.091L671.311,355.694L660.378,355.694C657.178,355.694 655.023,356.225 653.911,357.293C652.8,358.36 652.244,359.649 652.244,361.159C652.244,362.891 652.933,364.283 654.311,365.325C655.689,366.371 657.6,366.892 660.045,366.892C662.444,366.892 664.544,366.361 666.344,365.294C668.144,364.226 669.444,362.67 670.245,360.628L671.511,365.026C670.667,367.113 669.178,368.773 667.044,369.99C664.911,371.217 662.222,371.825 658.978,371.825Z" style="fill-rule:nonzero;"/>
                            </g>
                            <g id="g8" transform="matrix(0.283717,0,0,0.283717,2724.21,88.7189)">
                                <path id="path8" d="M704.511,386.693C701.578,386.693 698.989,386.229 696.745,385.296C694.5,384.358 692.578,382.971 690.978,381.126C689.378,379.285 688.167,376.95 687.344,374.125C686.522,371.305 686.111,367.98 686.111,364.16C686.111,361.139 686.378,358.427 686.911,356.025C687.444,353.627 688.211,351.493 689.211,349.627C690.211,347.761 691.455,346.137 692.944,344.76C694.433,343.384 696.122,342.239 698.011,341.327C699.9,340.414 701.977,339.718 704.244,339.229L720.377,335.625L721.311,341.559L706.444,344.76C705.555,344.941 704.489,345.204 703.245,345.559C702,345.915 700.733,346.462 699.444,347.194C698.155,347.926 696.955,348.936 695.844,350.225C694.733,351.514 693.844,353.194 693.178,355.262C692.511,357.329 692.178,359.87 692.178,362.891C692.178,363.737 692.2,364.381 692.244,364.825C692.289,365.273 692.344,365.717 692.411,366.16C692.478,366.603 692.534,367.273 692.578,368.16L689.911,365.428C690.622,362.984 691.755,360.85 693.311,359.025C694.867,357.205 696.745,355.793 698.944,354.792C701.144,353.792 703.555,353.292 706.178,353.292C709.466,353.292 712.389,354.004 714.945,355.427C717.5,356.849 719.511,358.803 720.978,361.293C722.444,363.783 723.178,366.629 723.178,369.825C723.178,373.073 722.411,375.97 720.878,378.527C719.344,381.084 717.178,383.085 714.378,384.528C711.578,385.972 708.289,386.693 704.511,386.693ZM705.111,381.363C707.378,381.363 709.378,380.858 711.111,379.863C712.844,378.862 714.2,377.507 715.177,375.795C716.156,374.084 716.645,372.161 716.645,370.026C716.645,367.892 716.156,366.005 715.177,364.361C714.2,362.716 712.844,361.417 711.111,360.458C709.378,359.504 707.333,359.025 704.977,359.025C702.756,359.025 700.756,359.484 698.978,360.396C697.2,361.304 695.822,362.572 694.845,364.196C693.867,365.814 693.377,367.696 693.377,369.825C693.377,371.96 693.878,373.903 694.878,375.661C695.878,377.414 697.256,378.806 699.011,379.827C700.766,380.847 702.8,381.363 705.111,381.363Z" style="fill-rule:nonzero;"/>
                            </g>
                            <g id="g9" transform="matrix(0.283717,0,0,0.283717,2724.21,92.8992)">
                                <path id="path9" d="M747.444,371.825C743.889,371.825 740.733,371.047 737.978,369.495C735.222,367.938 733.044,365.794 731.444,363.061C729.845,360.324 729.044,357.226 729.044,353.761C729.044,350.25 729.845,347.137 731.444,344.425C733.044,341.713 735.222,339.595 737.978,338.058C740.733,336.527 743.889,335.759 747.444,335.759C750.956,335.759 754.1,336.527 756.877,338.058C759.655,339.595 761.833,341.703 763.411,344.394C764.989,347.08 765.778,350.204 765.778,353.761C765.778,357.272 764.989,360.381 763.411,363.092C761.833,365.804 759.655,367.938 756.877,369.495C754.1,371.047 750.956,371.825 747.444,371.825ZM747.444,366.227C749.711,366.227 751.745,365.716 753.545,364.69C755.344,363.67 756.755,362.216 757.778,360.324C758.8,358.437 759.311,356.251 759.311,353.761C759.311,351.225 758.8,349.039 757.778,347.193C756.755,345.348 755.344,343.915 753.545,342.894C751.745,341.873 749.711,341.358 747.444,341.358C745.177,341.358 743.155,341.873 741.378,342.894C739.6,343.915 738.178,345.348 737.111,347.193C736.044,349.039 735.511,351.225 735.511,353.761C735.511,356.251 736.044,358.437 737.111,360.324C738.178,362.216 739.6,363.67 741.378,364.69C743.155,365.716 745.177,366.227 747.444,366.227Z" style="fill-rule:nonzero;"/>
                            </g>
                            <g id="g10" transform="matrix(0.283717,0,0,0.283717,2724.21,96.455)">
                                <path id="path10" d="M793.778,359.292C790.844,359.292 788.167,358.617 785.744,357.261C783.322,355.905 781.389,353.895 779.945,351.224C778.5,348.559 777.778,345.229 777.778,341.228C777.778,337.228 778.477,333.892 779.878,331.227C781.278,328.562 783.189,326.561 785.611,325.226C788.033,323.891 790.756,323.226 793.778,323.226C797.244,323.226 800.311,323.984 802.978,325.494C805.644,327.005 807.756,329.103 809.311,331.794C810.866,334.48 811.645,337.625 811.645,341.228C811.645,344.827 810.866,347.982 809.311,350.693C807.756,353.405 805.644,355.513 802.978,357.029C800.311,358.54 797.244,359.292 793.778,359.292ZM775.045,371.825L775.045,323.561L781.178,323.561L781.178,333.093L780.778,341.295L781.444,349.492L781.444,371.825L775.045,371.825ZM793.245,353.694C795.511,353.694 797.544,353.183 799.344,352.157C801.144,351.137 802.566,349.683 803.611,347.791C804.655,345.904 805.177,343.718 805.177,341.228C805.177,338.692 804.655,336.506 803.611,334.66C802.566,332.815 801.144,331.382 799.344,330.361C797.544,329.34 795.511,328.825 793.245,328.825C791.022,328.825 789.011,329.34 787.211,330.361C785.411,331.382 783.989,332.815 782.944,334.66C781.9,336.506 781.378,338.692 781.378,341.228C781.378,343.718 781.9,345.904 782.944,347.791C783.989,349.683 785.411,351.137 787.211,352.157C789.011,353.183 791.022,353.694 793.245,353.694Z" style="fill-rule:nonzero;"/>
                            </g>
                            <g id="g11" transform="matrix(0.283717,0,0,0.283717,2724.21,92.8992)">
                                <path id="path11" d="M842.244,371.428L842.244,363.958L841.911,362.561L841.911,349.828C841.911,347.116 841.122,345.018 839.544,343.528C837.966,342.038 835.6,341.291 832.444,341.291C830.355,341.291 828.311,341.636 826.311,342.327C824.311,343.018 822.622,343.935 821.244,345.095L818.577,340.296C820.4,338.826 822.588,337.703 825.145,336.924C827.7,336.151 830.377,335.759 833.177,335.759C838.022,335.759 841.755,336.94 844.378,339.296C847,341.646 848.311,345.25 848.311,350.091L848.311,371.428L842.244,371.428ZM830.644,371.825C828.022,371.825 825.722,371.382 823.744,370.495C821.767,369.603 820.244,368.371 819.178,366.794C818.111,365.216 817.578,363.427 817.578,361.427C817.578,359.515 818.033,357.782 818.944,356.225C819.855,354.669 821.344,353.426 823.411,352.493C825.478,351.56 828.267,351.091 831.777,351.091L842.978,351.091L842.978,355.694L832.044,355.694C828.844,355.694 826.689,356.225 825.578,357.293C824.466,358.36 823.911,359.649 823.911,361.159C823.911,362.891 824.6,364.283 825.978,365.325C827.356,366.371 829.266,366.892 831.711,366.892C834.111,366.892 836.211,366.361 838.011,365.294C839.811,364.226 841.111,362.67 841.911,360.628L843.177,365.026C842.333,367.113 840.844,368.773 838.711,369.99C836.577,371.217 833.889,371.825 830.644,371.825Z" style="fill-rule:nonzero;"/>
                            </g>
                            <g id="g12" transform="matrix(0.283717,0,0,0.283717,2724.21,92.8816)">
                                <path id="path12" d="M866.845,371.49L866.845,340.09L868.445,341.755L853.911,341.755L853.911,336.156L886.178,336.156L886.178,341.755L871.711,341.755L873.245,340.09L873.245,371.49L866.845,371.49Z" style="fill-rule:nonzero;"/>
                            </g>
                            <g id="g13" transform="matrix(0.283717,0,0,0.283717,2724.21,92.8992)">
                                <path id="path13" d="M906.311,371.825C902.756,371.825 899.6,371.047 896.844,369.495C894.089,367.938 891.911,365.794 890.311,363.061C888.711,360.324 887.911,357.226 887.911,353.761C887.911,350.25 888.711,347.137 890.311,344.425C891.911,341.713 894.089,339.595 896.844,338.058C899.6,336.527 902.756,335.759 906.311,335.759C909.822,335.759 912.966,336.527 915.744,338.058C918.522,339.595 920.7,341.703 922.278,344.394C923.855,347.08 924.644,350.204 924.644,353.761C924.644,357.272 923.855,360.381 922.278,363.092C920.7,365.804 918.522,367.938 915.744,369.495C912.966,371.047 909.822,371.825 906.311,371.825ZM906.311,366.227C908.577,366.227 910.611,365.716 912.411,364.69C914.211,363.67 915.622,362.216 916.645,360.324C917.666,358.437 918.177,356.251 918.177,353.761C918.177,351.225 917.666,349.039 916.645,347.193C915.622,345.348 914.211,343.915 912.411,342.894C910.611,341.873 908.577,341.358 906.311,341.358C904.044,341.358 902.022,341.873 900.244,342.894C898.467,343.915 897.044,345.348 895.978,347.193C894.911,349.039 894.378,351.225 894.378,353.761C894.378,356.251 894.911,358.437 895.978,360.324C897.044,362.216 898.467,363.67 900.244,364.69C902.022,365.716 904.044,366.227 906.311,366.227Z" style="fill-rule:nonzero;"/>
                            </g>
                            <g id="g14" transform="matrix(0.283717,0,0,0.283717,2724.21,96.455)">
                                <path id="path14" d="M952.644,359.292C949.711,359.292 947.033,358.617 944.611,357.261C942.189,355.905 940.255,353.895 938.811,351.224C937.366,348.559 936.645,345.229 936.645,341.228C936.645,337.228 937.344,333.892 938.744,331.227C940.144,328.562 942.055,326.561 944.478,325.226C946.899,323.891 949.622,323.226 952.644,323.226C956.111,323.226 959.178,323.984 961.844,325.494C964.51,327.005 966.624,329.103 968.18,331.794C969.737,334.48 970.508,337.625 970.508,341.228C970.508,344.827 969.737,347.982 968.18,350.693C966.624,353.405 964.51,355.513 961.844,357.029C959.178,358.54 956.111,359.292 952.644,359.292ZM933.911,371.825L933.911,323.561L940.045,323.561L940.045,333.093L939.644,341.295L940.311,349.492L940.311,371.825L933.911,371.825ZM952.111,353.694C954.378,353.694 956.411,353.183 958.211,352.157C960.011,351.137 961.433,349.683 962.478,347.791C963.526,345.904 964.045,343.718 964.045,341.228C964.045,338.692 963.526,336.506 962.478,334.66C961.433,332.815 960.011,331.382 958.211,330.361C956.411,329.34 954.378,328.825 952.111,328.825C949.889,328.825 947.878,329.34 946.078,330.361C944.278,331.382 942.855,332.815 941.811,334.66C940.766,336.506 940.244,338.692 940.244,341.228C940.244,343.718 940.766,345.904 941.811,347.791C942.855,349.683 944.278,351.137 946.078,352.157C947.878,353.183 949.889,353.694 952.111,353.694Z" style="fill-rule:nonzero;"/>
                            </g>
                            <g id="g15" transform="matrix(0.283717,0,0,0.283717,2724.21,92.8816)">
                                <path id="path15" d="M979.778,371.49L979.778,336.156L986.18,336.156L986.18,361.886L1007.84,336.156L1013.65,336.156L1013.65,371.49L1007.25,371.49L1007.25,345.755L985.646,371.49L979.778,371.49Z" style="fill-rule:nonzero;"/>
                            </g>
                            <g id="g16" transform="matrix(0.283717,0,0,0.283717,2724.21,92.8816)">
                                <path id="path16" d="M1048.65,371.49L1048.65,359.087L1049.65,360.288L1038.38,360.288C1033.67,360.288 1029.99,359.288 1027.34,357.288C1024.7,355.287 1023.38,352.38 1023.38,348.555C1023.38,344.466 1024.79,341.378 1027.61,339.29C1030.43,337.197 1034.2,336.156 1038.91,336.156L1054.38,336.156L1054.38,371.49L1048.65,371.49ZM1023.04,371.49L1032.65,357.953L1039.25,357.953L1029.91,371.49L1023.04,371.49ZM1048.65,357.087L1048.65,339.956L1049.65,341.755L1039.11,341.755C1036.18,341.755 1033.91,342.301 1032.31,343.389C1030.71,344.477 1029.91,346.266 1029.91,348.756C1029.91,353.38 1032.89,355.689 1038.84,355.689L1049.65,355.689L1048.65,357.087Z" style="fill-rule:nonzero;"/>
                            </g>
                            <g id="g17" transform="matrix(0.283717,0,0,0.283717,2724.21,130.729)">
                                <path id="path17" d="M601.711,289.222L601.711,284.49L621.511,284.49L621.511,289.222L601.711,289.222ZM606.444,269.024C610.089,269.024 613.355,269.802 616.244,271.359C619.134,272.911 621.4,275.045 623.044,277.757C624.689,280.469 625.511,283.577 625.511,287.088C625.511,290.558 624.689,293.666 623.044,296.424C621.4,299.177 619.134,301.337 616.244,302.889C613.355,304.446 610.089,305.224 606.444,305.224C603.423,305.224 600.633,304.735 598.078,303.755C595.522,302.781 593.378,301.358 591.645,299.492L595.378,295.759C596.845,297.177 598.477,298.234 600.277,298.925C602.078,299.61 604.044,299.956 606.178,299.956C608.755,299.956 611.044,299.414 613.044,298.321C615.045,297.234 616.633,295.713 617.811,293.759C618.989,291.8 619.578,289.578 619.578,287.088C619.578,284.603 618.989,282.392 617.811,280.458C616.633,278.525 615.045,276.999 613.044,275.891C611.044,274.777 608.755,274.226 606.178,274.226C604.044,274.226 602.078,274.581 600.277,275.293C598.477,275.999 596.845,277.066 595.378,278.489L591.645,274.824C593.378,272.911 595.522,271.468 598.078,270.488C600.633,269.514 603.423,269.024 606.444,269.024Z" style="fill-rule:nonzero;"/>
                            </g>
                            <g id="g18" transform="matrix(0.283717,0,0,0.283717,2724.21,130.71)">
                                <path id="path18" d="M634.578,304.822L634.578,269.493L667.311,269.493L667.311,304.822L660.911,304.822L660.911,273.488L662.444,275.092L639.444,275.092L640.978,273.488L640.978,304.822L634.578,304.822Z" style="fill-rule:nonzero;"/>
                            </g>
                            <g id="g19" transform="matrix(0.283717,0,0,0.283717,2724.21,130.71)">
                                <path id="path19" d="M679.711,304.822L679.711,269.493L686.111,269.493L686.111,295.223L707.778,269.493L713.577,269.493L713.577,304.822L707.178,304.822L707.178,279.092L685.578,304.822L679.711,304.822Z" style="fill-rule:nonzero;"/>
                            </g>
                            <g id="g20" transform="matrix(0.283717,0,0,0.283717,2724.21,130.685)">
                                <path id="path20" d="M735.711,305.379C738.822,305.379 741.589,304.926 744.011,304.013C746.433,303.101 748.355,301.833 749.778,300.214C751.2,298.59 751.911,296.713 751.911,294.579C751.911,291.914 750.778,289.8 748.511,288.243C746.244,286.692 743.133,285.913 739.178,285.913L738.911,287.444C741.222,287.444 743.267,287.068 745.045,286.31C746.822,285.557 748.245,284.521 749.311,283.212C750.377,281.902 750.911,280.402 750.911,278.711C750.911,276.711 750.211,274.979 748.811,273.515C747.411,272.045 745.511,270.922 743.111,270.143C740.711,269.365 737.978,269.024 734.911,269.112C732.866,269.158 730.811,269.457 728.744,270.009C726.677,270.566 724.578,271.355 722.444,272.38L724.178,277.381C726.088,276.443 727.966,275.757 729.811,275.314C731.655,274.865 733.467,274.623 735.245,274.577C737.067,274.577 738.655,274.778 740.011,275.18C741.367,275.577 742.422,276.154 743.178,276.912C743.933,277.67 744.311,278.577 744.311,279.644C744.311,280.624 743.989,281.48 743.345,282.212C742.7,282.944 741.8,283.49 740.644,283.846C739.489,284.202 738.133,284.377 736.578,284.377L730.578,284.377L730.578,288.98L736.977,288.98C739.6,288.98 741.645,289.424 743.111,290.311C744.578,291.202 745.311,292.465 745.311,294.11C745.311,295.27 744.911,296.28 744.111,297.146C743.311,298.013 742.167,298.688 740.678,299.178C739.189,299.667 737.422,299.91 735.377,299.91C733.155,299.91 730.956,299.611 728.778,299.013C726.6,298.409 724.667,297.579 722.978,296.512L721.044,301.379C723.044,302.668 725.322,303.658 727.878,304.343C730.433,305.034 733.044,305.379 735.711,305.379Z" style="fill-rule:nonzero;"/>
                            </g>
                            <g id="g21" transform="matrix(0.283717,0,0,0.283717,2724.21,130.729)">
                                <path id="path21" d="M776.777,305.157C773.222,305.157 770.067,304.379 767.311,302.822C764.556,301.27 762.378,299.126 760.778,296.388C759.178,293.656 758.377,290.558 758.377,287.088C758.377,283.577 759.178,280.469 760.778,277.757C762.378,275.045 764.556,272.921 767.311,271.39C770.067,269.854 773.222,269.091 776.777,269.091C780.289,269.091 783.433,269.854 786.211,271.39C788.989,272.921 791.166,275.035 792.744,277.726C794.322,280.412 795.111,283.536 795.111,287.088C795.111,290.604 794.322,293.713 792.744,296.424C791.166,299.136 788.989,301.27 786.211,302.822C783.433,304.379 780.289,305.157 776.777,305.157ZM776.777,299.559C779.044,299.559 781.078,299.048 782.878,298.022C784.678,297.002 786.088,295.548 787.111,293.656C788.133,291.769 788.644,289.578 788.644,287.088C788.644,284.557 788.133,282.366 787.111,280.525C786.088,278.68 784.678,277.247 782.878,276.226C781.078,275.2 779.044,274.69 776.777,274.69C774.511,274.69 772.489,275.2 770.711,276.226C768.933,277.247 767.511,278.68 766.444,280.525C765.377,282.366 764.844,284.557 764.844,287.088C764.844,289.578 765.377,291.769 766.444,293.656C767.511,295.548 768.933,297.002 770.711,298.022C772.489,299.048 774.511,299.559 776.777,299.559Z" style="fill-rule:nonzero;"/>
                            </g>
                            <g id="g22" transform="matrix(0.283717,0,0,0.283717,2724.21,130.729)">
                                <path id="path22" d="M819.511,305.157C815.956,305.157 812.8,304.379 810.045,302.822C807.289,301.27 805.111,299.126 803.511,296.388C801.911,293.656 801.111,290.558 801.111,287.088C801.111,283.577 801.911,280.469 803.511,277.757C805.111,275.045 807.289,272.921 810.045,271.39C812.8,269.854 815.956,269.091 819.511,269.091C823.022,269.091 826.166,269.854 828.944,271.39C831.722,272.921 833.9,275.035 835.478,277.726C837.055,280.412 837.844,283.536 837.844,287.088C837.844,290.604 837.055,293.713 835.478,296.424C833.9,299.136 831.722,301.27 828.944,302.822C826.166,304.379 823.022,305.157 819.511,305.157ZM819.511,299.559C821.777,299.559 823.811,299.048 825.611,298.022C827.411,297.002 828.822,295.548 829.844,293.656C830.866,291.769 831.378,289.578 831.378,287.088C831.378,284.557 830.866,282.366 829.844,280.525C828.822,278.68 827.411,277.247 825.611,276.226C823.811,275.2 821.777,274.69 819.511,274.69C817.244,274.69 815.222,275.2 813.445,276.226C811.667,277.247 810.245,278.68 809.178,280.525C808.111,282.366 807.578,284.557 807.578,287.088C807.578,289.578 808.111,291.769 809.178,293.656C810.245,295.548 811.667,297.002 813.445,298.022C815.222,299.048 817.244,299.559 819.511,299.559Z" style="fill-rule:nonzero;"/>
                            </g>
                            <g id="g23" transform="matrix(0.283717,0,0,0.283717,2724.21,130.71)">
                                <path id="path23" d="M852.778,304.822L852.778,273.427L854.378,275.092L839.844,275.092L839.844,269.493L872.111,269.493L872.111,275.092L857.644,275.092L859.178,273.427L859.178,304.822L852.778,304.822Z" style="fill-rule:nonzero;"/>
                            </g>
                            <g id="g24" transform="matrix(0.283717,0,0,0.283717,2724.21,130.729)">
                                <path id="path24" d="M892.244,305.157C888.689,305.157 885.533,304.379 882.778,302.822C880.022,301.27 877.844,299.126 876.244,296.388C874.644,293.656 873.844,290.558 873.844,287.088C873.844,283.577 874.644,280.469 876.244,277.757C877.844,275.045 880.022,272.921 882.778,271.39C885.533,269.854 888.689,269.091 892.244,269.091C895.756,269.091 898.9,269.854 901.677,271.39C904.456,272.921 906.633,275.035 908.211,277.726C909.789,280.412 910.578,283.536 910.578,287.088C910.578,290.604 909.789,293.713 908.211,296.424C906.633,299.136 904.456,301.27 901.677,302.822C898.9,304.379 895.756,305.157 892.244,305.157ZM892.244,299.559C894.511,299.559 896.544,299.048 898.345,298.022C900.145,297.002 901.555,295.548 902.578,293.656C903.599,291.769 904.111,289.578 904.111,287.088C904.111,284.557 903.599,282.366 902.578,280.525C901.555,278.68 900.145,277.247 898.345,276.226C896.544,275.2 894.511,274.69 892.244,274.69C889.977,274.69 887.955,275.2 886.178,276.226C884.4,277.247 882.978,278.68 881.911,280.525C880.844,282.366 880.311,284.557 880.311,287.088C880.311,289.578 880.844,291.769 881.911,293.656C882.978,295.548 884.4,297.002 886.178,298.022C887.955,299.048 889.977,299.559 892.244,299.559Z" style="fill-rule:nonzero;"/>
                            </g>
                            <g id="g25" transform="matrix(0.283717,0,0,0.283717,2724.21,130.862)">
                                <path id="path25" d="M913.711,304.219L914.111,298.822C914.422,298.868 914.711,298.909 914.977,298.956C915.244,298.997 915.489,299.023 915.711,299.023C917.133,299.023 918.255,298.533 919.078,297.553C919.9,296.579 920.511,295.275 920.911,293.656C921.311,292.032 921.6,290.197 921.777,288.155C921.955,286.109 922.089,284.067 922.178,282.021L922.778,268.957L949.911,268.957L949.911,304.286L943.511,304.286L943.511,272.69L945.045,274.556L926.911,274.556L928.377,272.623L927.911,282.423C927.778,285.531 927.533,288.444 927.178,291.156C926.822,293.867 926.278,296.244 925.544,298.291C924.811,300.332 923.811,301.93 922.544,303.09C921.278,304.245 919.644,304.822 917.644,304.822C917.067,304.822 916.455,304.766 915.811,304.652C915.167,304.544 914.466,304.4 913.711,304.219Z" style="fill-rule:nonzero;"/>
                            </g>
                            <g id="g26" transform="matrix(0.283717,0,0,0.283717,2724.21,130.729)">
                                <path id="path26" d="M977.443,305.157C973.888,305.157 970.737,304.379 967.974,302.822C965.22,301.27 963.044,299.126 961.444,296.388C959.844,293.656 959.044,290.558 959.044,287.088C959.044,283.577 959.844,280.469 961.444,277.757C963.044,275.045 965.22,272.921 967.974,271.39C970.737,269.854 973.888,269.091 977.443,269.091C980.953,269.091 984.097,269.854 986.874,271.39C989.659,272.921 991.834,275.035 993.413,277.726C994.993,280.412 995.779,283.536 995.779,287.088C995.779,290.604 994.993,293.713 993.413,296.424C991.834,299.136 989.659,301.27 986.874,302.822C984.097,304.379 980.953,305.157 977.443,305.157ZM977.443,299.559C979.71,299.559 981.747,299.048 983.547,298.022C985.341,297.002 986.752,295.548 987.775,293.656C988.797,291.769 989.308,289.578 989.308,287.088C989.308,284.557 988.797,282.366 987.775,280.525C986.752,278.68 985.341,277.247 983.547,276.226C981.747,275.2 979.71,274.69 977.443,274.69C975.177,274.69 973.155,275.2 971.378,276.226C969.6,277.247 968.18,278.68 967.112,280.525C966.044,282.366 965.51,284.557 965.51,287.088C965.51,289.578 966.044,291.769 967.112,293.656C968.18,295.548 969.6,297.002 971.378,298.022C973.155,299.048 975.177,299.559 977.443,299.559Z" style="fill-rule:nonzero;"/>
                            </g>
                            <g id="g27" transform="matrix(0.283717,0,0,0.283717,2724.21,130.71)">
                                <path id="path27" d="M1005.04,304.822L1005.04,269.493L1031.04,269.493L1031.04,275.092L1009.91,275.092L1011.44,273.623L1011.44,304.822L1005.04,304.822Z" style="fill-rule:nonzero;"/>
                            </g>
                            <g id="g28" transform="matrix(0.283717,0,0,0.283717,2724.21,130.71)">
                                <path id="path28" d="M1037.58,304.822L1037.58,269.493L1043.98,269.493L1043.98,295.223L1065.65,269.493L1071.45,269.493L1071.45,304.822L1065.04,304.822L1065.04,279.092L1043.44,304.822L1037.58,304.822Z" style="fill-rule:nonzero;"/>
                            </g>
                            <g id="g29" transform="matrix(0.283717,0,0,0.283717,2724.21,130.71)">
                                <path id="path29" d="M1083.85,304.822L1083.85,269.493L1090.25,269.493L1090.25,295.223L1111.91,269.493L1117.71,269.493L1117.71,304.822L1111.31,304.822L1111.31,279.092L1089.71,304.822L1083.85,304.822Z" style="fill-rule:nonzero;"/>
                            </g>
                            <g id="g30" transform="matrix(0.283717,0,0,0.283717,2724.21,168.538)">
                                <path id="path30" d="M596.244,238.159L596.244,202.825L602.644,202.825L602.644,228.56L624.311,202.825L630.111,202.825L630.111,238.159L623.711,238.159L623.711,212.424L602.111,238.159L596.244,238.159Z" style="fill-rule:nonzero;"/>
                            </g>
                            <g id="g31" transform="matrix(0.283717,0,0,0.283717,2724.21,164.378)">
                                <path id="path31" d="M676.777,253.357C673.844,253.357 671.256,252.887 669.011,251.954C666.767,251.021 664.845,249.634 663.245,247.789C661.645,245.943 660.433,243.608 659.611,240.788C658.789,237.963 658.377,234.643 658.377,230.823C658.377,227.797 658.645,225.085 659.178,222.688C659.711,220.285 660.478,218.156 661.478,216.285C662.478,214.419 663.722,212.8 665.211,211.418C666.7,210.042 668.389,208.897 670.277,207.99C672.167,207.078 674.244,206.376 676.511,205.887L692.644,202.288L693.577,208.222L678.711,211.418C677.822,211.599 676.755,211.867 675.511,212.223C674.266,212.578 673,213.12 671.711,213.852C670.422,214.589 669.222,215.599 668.111,216.888C667,218.177 666.111,219.852 665.444,221.92C664.778,223.987 664.444,226.534 664.444,229.555C664.444,230.4 664.466,231.044 664.511,231.488C664.556,231.931 664.611,232.375 664.678,232.823C664.744,233.266 664.8,233.931 664.845,234.823L662.178,232.086C662.889,229.642 664.022,227.508 665.578,225.688C667.133,223.863 669.011,222.456 671.211,221.456C673.411,220.456 675.822,219.955 678.445,219.955C681.733,219.955 684.656,220.667 687.211,222.085C689.767,223.507 691.777,225.466 693.245,227.956C694.711,230.441 695.444,233.287 695.444,236.488C695.444,239.731 694.678,242.634 693.144,245.185C691.611,247.742 689.444,249.743 686.645,251.186C683.844,252.63 680.555,253.357 676.777,253.357ZM677.378,248.021C679.644,248.021 681.645,247.521 683.377,246.521C685.111,245.52 686.467,244.165 687.444,242.453C688.422,240.742 688.911,238.819 688.911,236.689C688.911,234.555 688.422,232.663 687.444,231.019C686.467,229.374 685.111,228.075 683.377,227.121C681.645,226.168 679.6,225.688 677.244,225.688C675.023,225.688 673.022,226.142 671.244,227.054C669.466,227.967 668.089,229.23 667.111,230.854C666.133,232.478 665.644,234.354 665.644,236.488C665.644,238.623 666.144,240.566 667.144,242.319C668.144,244.077 669.522,245.464 671.278,246.485C673.033,247.51 675.067,248.021 677.378,248.021Z" style="fill-rule:nonzero;"/>
                            </g>
                            <g id="g32" transform="matrix(0.283717,0,0,0.283717,2724.21,168.538)">
                                <path id="path32" d="M704.578,238.159L704.578,202.825L710.978,202.825L710.978,228.56L732.644,202.825L738.445,202.825L738.445,238.159L732.044,238.159L732.044,212.424L710.444,238.159L704.578,238.159Z" style="fill-rule:nonzero;"/>
                            </g>
                            <g id="g33" transform="matrix(0.283717,0,0,0.283717,2724.21,168.558)">
                                <path id="path33" d="M765.978,238.489C762.422,238.489 759.266,237.711 756.511,236.154C753.755,234.597 751.578,232.453 749.977,229.72C748.377,226.988 747.578,223.89 747.578,220.42C747.578,216.909 748.377,213.801 749.977,211.089C751.578,208.377 753.755,206.254 756.511,204.722C759.266,203.186 762.422,202.423 765.978,202.423C769.489,202.423 772.633,203.186 775.411,204.722C778.189,206.254 780.367,208.367 781.944,211.053C783.522,213.744 784.311,216.863 784.311,220.42C784.311,223.931 783.522,227.045 781.944,229.756C780.367,232.463 778.189,234.597 775.411,236.154C772.633,237.711 769.489,238.489 765.978,238.489ZM765.978,232.886C768.245,232.886 770.277,232.375 772.078,231.355C773.878,230.334 775.289,228.875 776.311,226.988C777.333,225.096 777.844,222.91 777.844,220.42C777.844,217.889 777.333,215.698 776.311,213.852C775.289,212.012 773.878,210.574 772.078,209.553C770.277,208.532 768.245,208.022 765.978,208.022C763.711,208.022 761.689,208.532 759.911,209.553C758.133,210.574 756.711,212.012 755.644,213.852C754.578,215.698 754.044,217.889 754.044,220.42C754.044,222.91 754.578,225.096 755.644,226.988C756.711,228.875 758.133,230.334 759.911,231.355C761.689,232.375 763.711,232.886 765.978,232.886Z" style="fill-rule:nonzero;"/>
                            </g>
                            <g id="g34" transform="matrix(0.283717,0,0,0.283717,2724.21,168.538)">
                                <path id="path34" d="M793.577,238.159L793.577,202.825L799.977,202.825L799.977,228.56L821.645,202.825L827.444,202.825L827.444,238.159L821.044,238.159L821.044,212.424L799.444,238.159L793.577,238.159Z" style="fill-rule:nonzero;"/>
                            </g>
                            <g id="g35" transform="matrix(0.283717,0,0,0.283717,2724.21,168.538)">
                                <path id="path35" d="M839.844,238.159L839.844,202.825L846.244,202.825L846.244,217.827L866.378,217.827L866.378,202.825L872.778,202.825L872.778,238.159L866.378,238.159L866.378,223.359L846.244,223.359L846.244,238.159L839.844,238.159Z" style="fill-rule:nonzero;"/>
                            </g>
                            <g id="g36" transform="matrix(0.283717,0,0,0.283717,2724.21,168.199)">
                                <path id="path36" d="M906.311,239.892L904.778,239.892C897.533,239.799 891.911,238.19 887.911,235.056C883.911,231.921 881.911,227.447 881.911,221.621C881.911,215.847 883.922,211.414 887.944,208.321C891.967,205.233 897.644,203.665 904.977,203.624L906.378,203.624C913.8,203.624 919.566,205.176 923.677,208.29C927.788,211.398 929.844,215.847 929.844,221.621C929.844,227.488 927.778,231.999 923.644,235.154C919.511,238.309 913.733,239.892 906.311,239.892ZM906.178,234.288C910.045,234.288 913.255,233.798 915.811,232.824C918.367,231.844 920.289,230.421 921.577,228.555C922.866,226.689 923.511,224.379 923.511,221.621C923.511,218.91 922.866,216.646 921.577,214.821C920.289,213.002 918.367,211.62 915.811,210.687C913.255,209.754 910.045,209.29 906.178,209.29L905.177,209.29C901.4,209.29 898.255,209.769 895.744,210.723C893.233,211.677 891.355,213.069 890.111,214.888C888.866,216.713 888.245,218.956 888.245,221.621C888.245,224.333 888.878,226.622 890.145,228.488C891.411,230.354 893.3,231.777 895.811,232.757C898.322,233.731 901.444,234.246 905.177,234.288L906.178,234.288ZM902.711,252.29L902.711,189.89L908.978,189.89L908.978,252.29L902.711,252.29Z" style="fill-rule:nonzero;"/>
                            </g>
                            <g id="g37" transform="matrix(0.283717,0,0,0.283717,2724.21,168.558)">
                                <path id="path37" d="M954.044,238.489C950.489,238.489 947.333,237.711 944.578,236.154C941.822,234.597 939.644,232.453 938.044,229.72C936.444,226.988 935.644,223.89 935.644,220.42C935.644,216.909 936.444,213.801 938.044,211.089C939.644,208.377 941.822,206.254 944.578,204.722C947.333,203.186 950.489,202.423 954.044,202.423C957.556,202.423 960.7,203.186 963.48,204.722C966.258,206.254 968.432,208.367 970.012,211.053C971.591,213.744 972.377,216.863 972.377,220.42C972.377,223.931 971.591,227.045 970.012,229.756C968.432,232.463 966.258,234.597 963.48,236.154C960.7,237.711 957.556,238.489 954.044,238.489ZM954.044,232.886C956.311,232.886 958.345,232.375 960.144,231.355C961.944,230.334 963.358,228.875 964.381,226.988C965.403,225.096 965.914,222.91 965.914,220.42C965.914,217.889 965.403,215.698 964.381,213.852C963.358,212.012 961.944,210.574 960.144,209.553C958.345,208.532 956.311,208.022 954.044,208.022C951.777,208.022 949.755,208.532 947.978,209.553C946.2,210.574 944.777,212.012 943.711,213.852C942.644,215.698 942.111,217.889 942.111,220.42C942.111,222.91 942.644,225.096 943.711,226.988C944.777,228.875 946.2,230.334 947.978,231.355C949.755,232.375 951.777,232.886 954.044,232.886Z" style="fill-rule:nonzero;"/>
                            </g>
                            <g id="g38" transform="matrix(0.283717,0,0,0.283717,2724.21,172.114)">
                                <path id="path38" d="M1000.38,225.956C997.442,225.956 994.764,225.276 992.345,223.92C989.919,222.564 987.988,220.554 986.546,217.888C985.096,215.223 984.379,211.888 984.379,207.887C984.379,203.887 985.081,200.556 986.477,197.886C987.881,195.221 989.789,193.22 992.208,191.885C994.634,190.555 997.358,189.89 1000.38,189.89C1003.84,189.89 1006.91,190.643 1009.57,192.153C1012.24,193.664 1014.36,195.767 1015.91,198.453C1017.46,201.144 1018.24,204.289 1018.24,207.887C1018.24,211.486 1017.46,214.646 1015.91,217.352C1014.36,220.064 1012.24,222.178 1009.57,223.688C1006.91,225.199 1003.84,225.956 1000.38,225.956ZM981.648,238.489L981.648,190.22L987.775,190.22L987.775,199.757L987.378,207.954L988.042,216.156L988.042,238.489L981.648,238.489ZM999.845,220.353C1002.11,220.353 1004.14,219.842 1005.94,218.822C1007.74,217.801 1009.17,216.342 1010.21,214.455C1011.25,212.563 1011.78,210.377 1011.78,207.887C1011.78,205.356 1011.25,203.165 1010.21,201.319C1009.17,199.479 1007.74,198.041 1005.94,197.02C1004.14,195.999 1002.11,195.489 999.845,195.489C997.625,195.489 995.611,195.999 993.81,197.02C992.009,198.041 990.59,199.479 989.545,201.319C988.499,203.165 987.981,205.356 987.981,207.887C987.981,210.377 988.499,212.563 989.545,214.455C990.59,216.342 992.009,217.801 993.81,218.822C995.611,219.842 997.625,220.353 999.845,220.353Z" style="fill-rule:nonzero;"/>
                            </g>
                            <g id="g39" transform="matrix(0.283717,0,0,0.283717,2724.21,168.538)">
                                <path id="path39" d="M1027.51,238.159L1027.51,202.825L1034.11,202.825L1049.31,228.957L1046.65,228.957L1062.24,202.825L1068.24,202.825L1068.24,238.159L1062.44,238.159L1062.44,210.027L1063.51,210.625L1049.24,234.159L1046.44,234.159L1032.11,210.161L1033.38,209.893L1033.38,238.159L1027.51,238.159Z" style="fill-rule:nonzero;"/>
                            </g>
                            <g id="g40" transform="matrix(0.283717,0,0,0.283717,2724.21,168.558)">
                                <path id="path40" d="M1102.38,238.087L1102.38,230.623L1102.04,229.22L1102.04,216.487C1102.04,213.775 1101.26,211.677 1099.68,210.187C1098.1,208.697 1095.73,207.955 1092.58,207.955C1090.49,207.955 1088.45,208.3 1086.45,208.986C1084.45,209.677 1082.75,210.599 1081.38,211.754L1078.71,206.955C1080.53,205.485 1082.72,204.367 1085.28,203.588C1087.84,202.81 1090.51,202.423 1093.31,202.423C1098.16,202.423 1101.89,203.599 1104.51,205.955C1107.13,208.31 1108.44,211.909 1108.44,216.755L1108.44,238.087L1102.38,238.087ZM1090.78,238.489C1088.16,238.489 1085.85,238.041 1083.88,237.154C1081.9,236.268 1080.38,235.03 1079.31,233.453C1078.24,231.875 1077.71,230.086 1077.71,228.086C1077.71,226.179 1078.17,224.441 1079.08,222.89C1079.99,221.333 1081.48,220.09 1083.55,219.152C1085.61,218.219 1088.4,217.755 1091.91,217.755L1103.11,217.755L1103.11,222.353L1092.18,222.353C1088.98,222.353 1086.82,222.89 1085.71,223.957C1084.6,225.019 1084.04,226.308 1084.04,227.823C1084.04,229.555 1084.73,230.942 1086.11,231.989C1087.49,233.03 1089.4,233.556 1091.84,233.556C1094.24,233.556 1096.34,233.02 1098.14,231.953C1099.94,230.885 1101.24,229.334 1102.04,227.287L1103.31,231.69C1102.46,233.778 1100.97,235.432 1098.85,236.654C1096.71,237.876 1094.02,238.489 1090.78,238.489Z" style="fill-rule:nonzero;"/>
                            </g>
                            <g id="g41" transform="matrix(0.283717,0,0,0.283717,2724.21,168.538)">
                                <path id="path41" d="M1126.98,238.159L1126.98,206.759L1128.58,208.424L1114.04,208.424L1114.04,202.825L1146.31,202.825L1146.31,208.424L1131.85,208.424L1133.38,206.759L1133.38,238.159L1126.98,238.159Z" style="fill-rule:nonzero;"/>
                            </g>
                            <g id="g42" transform="matrix(0.283717,0,0,0.283717,2724.21,168.538)">
                                <path id="path42" d="M1152.84,238.159L1152.84,202.825L1159.25,202.825L1159.25,228.56L1180.91,202.825L1186.71,202.825L1186.71,238.159L1180.31,238.159L1180.31,212.424L1158.71,238.159L1152.84,238.159Z" style="fill-rule:nonzero;"/>
                            </g>
                            <g id="g43" transform="matrix(0.283717,0,0,0.283717,2724.21,168.538)">
                                <path id="path43" d="M1224.71,238.159L1211.05,220.961L1216.31,217.76L1232.24,238.159L1224.71,238.159ZM1199.11,238.159L1199.11,202.825L1205.51,202.825L1205.51,238.159L1199.11,238.159ZM1203.58,223.225L1203.58,217.76L1215.24,217.76L1215.24,223.225L1203.58,223.225ZM1216.85,221.224L1210.91,220.425L1224.44,202.825L1231.31,202.825L1216.85,221.224Z" style="fill-rule:nonzero;"/>
                            </g>
                            <g id="g44" transform="matrix(0.283717,0,0,0.283717,2724.21,168.538)">
                                <path id="path44" d="M1238.98,238.159L1238.98,202.825L1245.37,202.825L1245.37,228.56L1267.04,202.825L1272.84,202.825L1272.84,238.159L1266.44,238.159L1266.44,212.424L1244.85,238.159L1238.98,238.159Z" style="fill-rule:nonzero;"/>
                            </g>
                            <g id="g45" transform="matrix(0.283717,0,0,0.283717,2724.21,128.958)">
                                <path id="path45" d="M113.73,263.87C91.54,285.51 77.75,315.73 77.75,349.15C77.75,375.75 86.49,400.33 101.25,420.16L93.33,420.16C79.43,399.95 71.3,375.49 71.3,349.15C71.3,279.85 127.56,223.59 196.86,223.59C248.1,223.59 292.22,254.36 311.73,298.41L307.66,305.4C307.58,305.2 307.5,305 307.42,304.81L287.43,338.29C287.42,338.23 287.41,338.17 287.4,338.12L287.4,338.1C287.63,336.78 287.51,335.52 286.53,334.56C285.74,335.29 284.99,335.56 284.28,335.56C282.46,335.56 280.85,333.73 279.09,332.97C278.37,332.66 277.8,332.53 277.31,332.53C275.7,332.53 274.95,333.94 272.71,335.01C270.53,336.05 266.95,336.84 264.59,337.33C263.9,337.47 263.23,337.54 262.58,337.54C260.53,337.54 258.7,336.81 257.26,335.2C253.92,331.47 249.83,327.02 246.98,323.02C246.11,321.79 245.82,320.23 245.15,319.04C244.42,317.73 242.51,316.78 241.96,315.67C241.9,315.55 241.79,315.42 241.82,315.31C242.37,313.22 244.11,310.88 244.38,308.68C244.46,307.99 244.46,307.28 244.39,306.55L244.39,306.54C244.83,302.46 241.82,293.89 241.89,293.26C241.97,292.46 242.16,291.68 242.51,290.95C243.54,288.87 246.93,287.67 247.48,285.07C247.61,284.45 247.5,283.99 247.34,283.56C247.4,283.4 247.45,283.23 247.48,283.06C247.66,282.24 247.41,281.71 247.19,281.17C247.25,281.05 247.29,280.93 247.37,280.8C248.09,279.66 249.21,279.59 250.26,278.99C253.26,277.26 259.71,273.52 264.42,273.52C265.8,273.52 267.04,273.84 267.99,274.63C269.07,275.51 268.77,277.14 269.99,278.03C270.87,278.68 273.01,278.34 274.17,278.98C276.61,280.33 277.86,282.6 280.67,283.49C280.85,281.94 282.12,281.63 283.63,281.63C284.13,281.63 284.65,281.66 285.18,281.7C285.7,281.73 286.21,281.76 286.69,281.76C288.38,281.76 289.6,281.33 288.93,278.94C289.32,278.23 289.14,276.94 288.01,274.65C285.92,270.44 282.54,268.44 277.7,268.43C278,268.8 278.3,269.85 278.86,270.32C278.79,270.37 276.86,271.51 276.46,271.51C275.02,271.51 274.79,269.29 273.68,267.6C272.65,266.04 269.06,263.81 267.28,263.37C267.39,264.19 268.08,265.42 268.13,265.67C267.82,265.55 267.53,265.44 267.28,265.38C267.36,266 267.61,266.57 267.9,267.12C267.92,267.14 267.88,267.15 267.84,267.15C265.79,267.03 264.82,264.29 263.25,263.04C261.5,261.66 260.26,260.97 258.51,260.97C258.21,260.97 257.89,260.99 257.55,261.03C251.73,261.75 255.55,268.8 250.47,270.61C249.7,270.88 248.91,271.01 248.13,271.01C244.53,271.01 240.18,267.08 240.6,264.77C241.18,262.76 243.87,263.77 244.38,261.48C244.5,260.96 244.4,260.48 244.18,260.03C244.27,259.87 244.33,259.69 244.38,259.47C244.81,257.53 242.41,256.18 240.91,255.31C240.78,255.24 240.67,255.17 240.56,255.11L240.9,255.31C240.88,255.08 240.82,254.86 240.73,254.66C240.74,254.65 240.74,254.65 240.74,254.64C242.39,249.61 232.43,249.9 231.06,245.64C230.97,245.37 230.92,245.09 230.91,244.79C230.92,245.09 230.98,245.37 231.06,245.64C231.33,244.93 231.93,244.66 232.65,244.66C233.98,244.66 235.71,245.6 236.54,246.48C237.31,247.3 238.75,250.05 240.29,250.05C240.85,250.05 241.42,249.68 241.98,248.72C242.65,247.57 242.64,246.77 242.25,246.2L242.25,246.19C243.74,242.83 238.73,242.9 237.11,242.35C234.17,241.34 233.13,239.3 231.51,237.04C230.88,236.18 230.27,235.39 229.66,234.62C220.39,231.97 210.65,230.41 200.61,230.1C200.77,231.35 199.65,232.16 197.94,233.54C196.57,234.64 191.2,241.03 188.75,241.03C188.57,241.03 188.4,241 188.25,240.92C187.91,240.74 187.73,240.52 187.63,240.28C187.59,240.19 187.57,240.09 187.55,239.99L187.54,239.89L187.57,240.08C187.58,240.14 187.6,240.2 187.62,240.26C187.61,240.13 187.58,240.01 187.54,239.89L187.54,239.84C187.5,239.19 187.79,238.43 187.51,237.77C187.11,236.83 186.15,236.25 185.64,235.39C185,234.29 183.85,232.43 183.23,230.81C180.15,231.16 177.12,231.63 174.12,232.21C174.47,232.59 175.09,233.18 175.42,233.58C175.5,233.68 175.43,233.6 175.43,233.6C174.91,233.7 174.39,233.77 173.87,233.87L173.94,234.01C174.24,234.42 175.37,235.41 175.59,235.85C175.83,236.31 176.07,236.73 176.26,237.12C176.06,237.4 175.71,237.81 175.21,238.19C174.31,238.87 173.5,239.13 172.75,239.13C171.56,239.13 170.51,238.5 169.49,237.86C168.46,237.22 167.45,236.58 166.34,236.58C166.17,236.58 165.99,236.6 165.8,236.63C162.39,237.29 161.14,241.18 157.31,241.66C153.9,242.1 148.87,242.48 148.87,247.01L149.25,247.14C149.01,247.67 148.87,248.29 148.87,249.02C150.09,249.42 151.29,249.75 152.61,249.92C152.65,250.45 152.55,252.97 152.32,253.6C152.45,253.62 152.58,253.64 152.7,253.66C152.65,254.34 152.54,255.01 152.32,255.61C152.95,255.72 153.48,255.77 153.91,255.77C156.58,255.77 155.85,253.83 156.92,251.4C158.11,248.69 161.22,249.08 162.84,246.85C164.14,245.08 163.95,242.62 166,242.62C166.44,242.62 166.98,242.74 167.66,243C169.77,243.79 170.38,245.71 172.81,245.71C173.03,245.71 173.26,245.7 173.51,245.67C173.64,245.96 173.73,246.29 173.79,246.63L173.8,246.64C173.8,246.91 173.86,246.89 173.79,247.14C173.88,247.14 173.79,247.43 173.87,247.43C173.89,248.12 173.8,248.82 173.62,249.42C177.22,249.52 177.65,251.29 179.36,253.83C179.81,254.51 180.7,255.81 181.11,257.03C180.62,257.51 180.16,257.89 178.98,257.93C178.92,257.94 178.86,257.94 178.8,257.94C176.69,257.94 177.54,256.55 175.97,255.5C175.19,254.97 174.82,254.8 174.49,254.8C174.05,254.8 173.68,255.1 172.5,255.3C169.8,255.76 166.15,255.28 168.15,257.95C167.39,258.3 167.27,258.97 168.51,260.41C169.31,261.33 170.27,261.98 170.92,262.53C170.41,262.82 170.02,263.03 169.31,263.32C168.27,263.74 166.45,264.65 165.46,264.88C165.01,264.98 164.68,265.02 164.43,265.02C163.37,265.02 163.67,264.29 162.25,264.2C162.07,264.19 161.9,264.19 161.75,264.19C159.25,264.19 159.72,265.61 159.78,267.21L159.78,267.25C159.74,267.39 159.72,267.55 159.72,267.71C159.71,267.87 159.71,268.05 159.72,268.23C159.77,267.95 159.78,267.67 159.78,267.4L159.78,267.28C159.79,267.6 159.78,267.93 159.72,268.25C159.59,268.97 159.25,269.66 158.39,270.23C156.18,271.69 153.76,271.51 151.6,273.49C149.72,275.22 147.7,277.21 145.99,279.09C143.78,281.51 143.51,284.36 141.74,286.86C139.79,289.6 137.8,289.32 138.04,293.12C138.05,293.28 138.07,293.45 138.08,293.63C138.08,293.64 138.09,293.65 138.09,293.66C138.03,294.07 138.01,294.55 138.04,295.13C138.08,295.69 138.16,296.38 138.21,297.09C138.19,297.74 137.47,300.01 135.73,300.42C135.9,298.88 136.28,297.45 136.07,296.01C136.07,295.99 136.08,295.97 136.08,295.95C136.21,294.87 136.2,293.82 135.73,292.74C134.84,290.7 132.93,289.57 130.68,289.57C130.4,289.57 130.11,289.59 129.82,289.62C126.46,290.04 119.33,294.95 117.36,297.67C115.75,299.92 113.15,306.45 113.59,310.42L113.59,310.46C113.45,312.09 113.61,313.54 114.27,314.48C114.87,315.34 115.49,315.69 116.15,315.69C117.63,315.69 119.24,313.86 120.88,312.02C122.51,310.19 124.18,308.36 125.8,308.36L125.9,308.36C126.08,308.74 126.19,309.1 126.27,309.45C126.4,310.39 123.32,314.26 123.71,317.06C123.76,317.07 123.81,317.09 123.86,317.11C123.69,317.74 123.61,318.38 123.71,319.07C126.42,319.99 128.94,320.45 129.49,322.55C129.66,323.19 129.27,323.51 129.07,324.08L129.43,324.81C129.35,325.21 129.23,325.62 129.07,326.09L129.8,327.54C129.8,327.71 129.81,327.87 129.82,328.02L129.82,328.05C129.64,331.77 130.31,333.68 133.42,333.68C134.05,333.68 134.79,333.6 135.65,333.44C138.99,332.81 142.21,331.58 145.23,329.87C146.38,329.22 148.34,327.51 149.66,327.32C149.83,327.3 150,327.29 150.17,327.29C151.98,327.29 153.78,328.52 155.46,328.71C155.71,328.74 155.94,328.75 156.17,328.75C157.87,328.75 159.08,328.04 160.8,328.02L160.87,328.02C163,328.02 164.43,329.17 166.53,329.25C167.3,331.24 170.65,333.18 172.38,334.29C173.71,335.14 175.17,336.06 176.65,336.63C177.91,337.12 180.2,337.2 181.23,337.77C183.64,339.12 184.72,342.82 185.06,345.58C185.08,345.9 182.26,351.64 183.1,353.14L183.1,353.15C182.88,354 182.83,354.73 183.13,355.21C183.6,355.94 184.13,356.22 184.72,356.22C186.54,356.22 188.78,353.49 190.5,353.47L190.55,353.47C192.03,353.47 191.87,354.34 193.3,354.72C193.7,354.82 194.07,354.86 194.42,354.86C194.82,354.86 195.19,354.81 195.58,354.77C195.97,354.72 196.37,354.68 196.82,354.68C197.05,354.68 197.29,354.69 197.55,354.72C200.38,355.07 202.9,357.11 205.68,357.83C209.34,358.79 210.77,358.06 213.52,360.8C215.57,362.85 216.59,364.8 216.85,366.75L216.85,366.77C216.51,369.45 214.86,372.13 212.55,375.06C208.91,379.65 206.3,386.02 205.27,391.79C204.66,395.24 206.04,397.89 202.69,400.41C200.1,402.35 197.47,402.35 195.62,405.33C194.01,407.93 194.2,411.43 192.63,413.95C191.27,416.12 188.59,418.31 186.78,420.16L160.21,420.16C159.35,416.96 158.54,413.73 158.48,410.02C158.47,409.88 158.47,409.73 158.47,409.59C158.47,409.2 158.47,408.82 158.48,408.44C158.49,402.4 158.51,396.87 154.21,392.56C150.72,389.07 145.82,387.55 143.67,382.99C142.3,380.06 142.87,377.48 142.14,374.38C141.34,371.02 138.75,370.14 136.31,368.29C133.79,366.38 132.69,363.4 132.5,360.28C132.35,357.82 132.77,355.26 133.52,353.07C133.57,352.93 133.62,352.78 133.67,352.64C133.62,352.78 133.57,352.93 133.52,353.07C132.78,355.26 132.36,357.81 132.51,360.27C132.63,358.17 133.1,356.11 133.79,354.33C134.95,351.32 140.8,343.3 139.98,338.82L139.98,338.79C140.19,337.35 140.02,336.09 139.24,335.18C138.68,334.53 138,334.31 137.27,334.31C136.46,334.31 135.58,334.58 134.73,334.85C133.88,335.12 133.05,335.39 132.33,335.39C132.13,335.39 131.94,335.37 131.76,335.32C130.33,334.94 127.78,332.5 126.42,331.75C126.02,328.29 124.13,327.77 121.01,327.11C119.32,323.2 117.64,321.37 113.59,320.9C109.17,320.38 108.42,318.18 106.13,314.9C104.9,313.12 104.05,312.17 104.2,310.67C104.31,309.61 104.53,308.39 104.7,306.74C104.94,304.43 105.38,301.06 105.29,298.1C105.3,298.04 105.3,297.97 105.3,297.91C105.37,295.69 105.24,293.54 104.62,292.01C100.85,292.42 102.35,299.8 98.79,299.8C98.49,299.8 98.17,299.75 97.8,299.65C97.79,299.65 97.79,299.64 97.78,299.64L97.82,299.65C98.17,296.83 99.82,294.91 100.83,292.06C101.8,289.32 101.38,285.98 102.07,283.23C102.7,280.68 104.06,277.26 105.75,275C107.61,272.51 110.58,271.45 112.36,268.8C113.1,267.69 113.57,266.41 113.99,265.12C113.51,265.58 113.03,266.02 112.55,266.48C112.56,266.48 112.56,266.47 112.56,266.47C113.05,265.66 113.41,264.78 113.73,263.87ZM54.43,250.25C55.06,249.01 56.28,245.98 54.35,244.01C54.15,243.8 54.15,243.48 54.36,243.28C54.58,243.04 54.88,243.09 55.08,243.29C57.39,245.65 56.21,248.96 55.46,250.51C56.03,250.72 56.55,251.04 56.98,251.46C57.65,250.87 58.26,249.55 58.86,248.25C59.89,246.05 61.06,243.55 63.08,243.23C63.36,243.19 63.62,243.38 63.67,243.66C63.71,243.94 63.52,244.2 63.24,244.25C61.76,244.48 60.72,246.72 59.8,248.69C59.14,250.09 58.51,251.44 57.7,252.19C57.68,252.2 57.67,252.22 57.65,252.24C57.75,252.39 57.85,252.56 57.94,252.74C58.1,253.04 58.22,253.36 58.3,253.69C60.02,253.79 63.86,253.78 66,251.94C66.22,251.75 66.54,251.78 66.72,251.99C66.9,252.2 66.89,252.52 66.68,252.71C66.68,252.71 66.67,252.71 66.67,252.72C64.31,254.74 60.38,254.83 58.44,254.73C58.44,254.94 58.43,255.15 58.41,255.36C59.57,255.71 60.5,256.26 61.41,256.8C63.01,257.74 64.38,258.55 66.74,258.23C67.02,258.19 67.28,258.38 67.32,258.66C67.34,258.84 67.28,259 67.16,259.11C67.08,259.18 66.99,259.23 66.88,259.24C64.17,259.62 62.5,258.64 60.89,257.69C60.02,257.17 59.18,256.68 58.17,256.37C57.93,257.06 57.52,257.71 56.95,258.23C56.64,258.51 56.29,258.76 55.91,258.95C54.12,259.86 52.65,260.83 51.55,261.84C46.56,266.42 48.49,272.15 53.75,283.26C57.72,291.66 61.83,300.34 58.62,308.73C57.64,311.29 56.02,313.62 53.81,315.65C51.42,317.85 48.36,319.72 44.45,321.36C44.21,321.47 43.95,321.55 43.7,321.61C44.56,323.2 45.45,326.14 42.9,329.23C42.88,329.24 42.87,329.26 42.85,329.28C42.67,329.45 42.38,329.46 42.18,329.29C41.96,329.11 41.93,328.79 42.11,328.57C44.53,325.63 43.38,322.94 42.6,321.73C42.03,321.72 41.46,321.6 40.91,321.38C40.72,321.3 40.53,321.21 40.34,321.11C38.81,322.1 35.82,324.51 36.69,326.19C36.8,326.41 36.75,326.66 36.58,326.81C36.55,326.84 36.51,326.87 36.47,326.89C36.22,327.02 35.91,326.92 35.78,326.67C34.51,324.22 37.99,321.48 39.47,320.46C39.08,320.08 38.76,319.64 38.51,319.15C36.69,319.9 32.24,321.4 29.81,319.23C29.59,319.04 29.57,318.72 29.76,318.51C29.94,318.31 30.28,318.27 30.49,318.46C32.49,320.25 36.54,318.85 38.16,318.18C38.03,317.64 38.01,317.09 38.07,316.55C36.92,315.05 34.52,312.55 32.85,313.44C32.6,313.57 32.29,313.48 32.15,313.23C32.02,312.98 32.11,312.67 32.36,312.53C34.56,311.36 37.09,313.78 38.39,315.32C38.65,314.72 39.03,314.16 39.53,313.7C39.92,313.34 40.37,313.05 40.86,312.84C45.88,310.73 48.89,308.3 49.99,305.43C51.79,300.72 48.68,294.16 45.4,287.22C40.9,277.72 34.75,264.71 45.27,255.06C47.01,253.46 49.18,252 51.73,250.71C52.57,250.27 53.51,250.12 54.43,250.25ZM109.48,269.65C109.48,269.65 103.97,275.99 104,275.93C104.53,274.85 105.12,273.84 105.75,272.99C106.78,271.61 108.16,270.67 109.48,269.65ZM128.86,176.52C128.86,176.46 128.86,176.4 128.88,176.34L130.04,171.64C128.34,171.05 127.27,169.56 127.6,168.12C127.96,166.54 129.86,165.63 131.84,166.08C133.83,166.53 135.14,168.18 134.78,169.76C134.47,171.14 132.98,172.01 131.29,171.91L130.14,176.56C130.38,176.57 130.62,176.58 130.86,176.59C132.64,176.68 134.35,177.03 135.96,177.62C137,178.01 137.96,178.48 138.84,179.03L141.71,175.78C140.48,174.47 140.22,172.65 141.18,171.52C142.23,170.29 144.34,170.36 145.89,171.69C147.44,173.01 147.84,175.08 146.78,176.31C145.87,177.38 144.15,177.47 142.7,176.59L139.89,179.77C142.47,181.74 144.05,184.39 144.23,187.05L148.32,187.46C148.67,185.7 149.99,184.42 151.47,184.54C153.08,184.67 154.25,186.43 154.09,188.45C153.92,190.48 152.47,192.02 150.86,191.89C149.45,191.77 148.38,190.42 148.24,188.74L144.2,188.34C144.14,188.88 144.02,189.42 143.83,189.94L143.78,190.1C143.09,192.09 141.85,193.68 140.31,194.91L143.23,197.82C144.62,196.67 146.45,196.52 147.51,197.55C148.68,198.68 148.48,200.77 147.06,202.24C145.65,203.7 143.56,203.98 142.39,202.85C141.38,201.87 141.4,200.15 142.36,198.75L139.26,195.66C136.59,197.36 133.27,198.14 130.3,198.12L130.68,202.27C132.48,202.28 133.98,203.33 134.14,204.81C134.31,206.42 132.81,207.9 130.79,208.12C128.77,208.34 126.98,207.21 126.81,205.6C126.66,204.19 127.78,202.89 129.41,202.43L129.01,198.07C125.52,197.96 122.08,198.31 118.76,199.1L119.49,203.2C121.28,203.05 122.87,203.98 123.15,205.43C123.46,207.02 122.09,208.63 120.1,209.02C118.1,209.41 116.23,208.43 115.92,206.84C115.65,205.46 116.65,204.06 118.24,203.47L117.51,199.42C113.37,200.55 109.44,202.36 105.89,204.77L108.62,207.81C110.07,206.74 111.9,206.69 112.91,207.77C114.02,208.96 113.7,211.04 112.21,212.43C110.72,213.81 108.62,213.98 107.52,212.79C106.55,211.75 106.67,210.04 107.7,208.7L104.84,205.51C102.11,207.5 99.63,209.86 97.47,212.55L100.43,215.83C101.87,214.76 103.71,214.71 104.72,215.79C105.82,216.98 105.51,219.07 104.02,220.45C102.53,221.84 100.43,222 99.32,220.81C98.36,219.78 98.48,218.06 99.51,216.72L96.66,213.56C95.03,215.53 92.76,217.32 90.23,218.38L91.63,222.29C93.37,221.85 95.09,222.5 95.61,223.89C96.18,225.4 95.1,227.22 93.19,227.93C91.29,228.65 89.28,228 88.71,226.48C88.22,225.16 88.98,223.61 90.44,222.76L89.03,218.82C86.85,219.5 84.53,219.63 82.26,218.88L80.41,222.76C81.95,223.69 82.71,225.36 82.09,226.71C81.42,228.18 79.38,228.7 77.53,227.85C75.67,227.01 74.72,225.13 75.39,223.66C75.97,222.37 77.6,221.82 79.24,222.25L81.07,218.41C79.05,217.47 77.53,215.56 76.82,213.02C76.76,212.8 76.7,212.58 76.65,212.36L73.25,213.97C73.86,215.67 73.38,217.44 72.05,218.1C70.6,218.81 68.69,217.92 67.79,216.09C66.89,214.27 67.34,212.21 68.79,211.49C70.06,210.86 71.67,211.47 72.66,212.84L76.44,211.04C76.23,208.94 76.54,206.73 77.35,204.58L73.39,203.12C72.61,204.74 71.01,205.64 69.61,205.15C68.08,204.61 67.39,202.62 68.06,200.7C68.74,198.78 70.52,197.66 72.05,198.19C73.39,198.66 74.08,200.24 73.79,201.9L77.84,203.4L77.85,203.39C77.98,203.11 78.12,202.83 78.27,202.56C78.58,201.98 78.92,201.41 79.3,200.87C79.43,200.68 79.57,200.49 79.71,200.3C79.83,200.14 79.95,199.97 80.08,199.81C80.27,199.57 80.46,199.32 80.65,199.08C81.39,198.17 82.15,197.27 82.94,196.4L82.95,196.39L79.72,193.6C78.42,194.84 76.61,195.12 75.47,194.17C74.23,193.13 74.28,191.02 75.59,189.46C76.89,187.9 78.96,187.48 80.2,188.52C81.29,189.42 81.38,191.14 80.53,192.6L83.82,195.45L83.84,195.43C84.17,195.08 84.5,194.73 84.84,194.39C85.51,193.71 86.19,193.05 86.9,192.41C87.61,191.75 88.34,191.11 89.09,190.49C89.45,190.19 89.82,189.89 90.19,189.59L88.01,185.8C86.38,186.55 84.57,186.21 83.81,184.94C82.98,183.55 83.72,181.58 85.47,180.53C87.22,179.49 89.31,179.77 90.14,181.17C90.86,182.38 90.39,184.03 89.1,185.13L91.21,188.8L91.22,188.79C91.63,188.48 92.04,188.18 92.46,187.88C93.28,187.28 94.13,186.71 94.98,186.16C95.84,185.6 96.71,185.07 97.59,184.56C98.03,184.31 98.48,184.06 98.92,183.82L98.95,183.8L97.15,179.7C95.44,180.26 93.68,179.74 93.06,178.4C92.38,176.92 93.33,175.04 95.18,174.19C97.03,173.34 99.07,173.84 99.75,175.31C100.34,176.6 99.7,178.19 98.3,179.14L100.09,183.2L100.12,183.18C100.58,182.95 101.03,182.73 101.49,182.5C102.39,182.07 103.3,181.66 104.22,181.27C105.14,180.88 106.07,180.51 107,180.17C107.48,180 107.96,179.83 108.44,179.67L108.45,179.66L107.58,174.91C105.79,175.06 104.2,174.14 103.91,172.69C103.59,171.1 104.95,169.49 106.94,169.09C108.94,168.69 110.81,169.65 111.13,171.24C111.41,172.63 110.41,174.03 108.83,174.63L109.68,179.26C110.17,179.11 110.66,178.97 111.15,178.83C112.13,178.55 113.12,178.29 114.11,178.06C115.09,177.83 116.07,177.63 117.06,177.46C117.57,177.37 118.07,177.28 118.58,177.2L118.61,177.2L118.38,172.68C116.59,172.6 115.13,171.48 115.03,170C114.92,168.39 116.48,166.97 118.51,166.83C120.54,166.7 122.28,167.9 122.38,169.51C122.48,170.92 121.3,172.18 119.66,172.57L119.88,177.02C122.84,176.63 125.84,176.46 128.86,176.52ZM247,201.06L256.34,205.85C258.67,207.05 259.59,209.9 258.39,212.23L258.35,212.31C257.15,214.64 254.3,215.56 251.97,214.37L242.63,209.57C240.3,208.38 239.38,205.52 240.58,203.19L240.62,203.11C241.82,200.78 244.67,199.86 247,201.06ZM209.53,181.99C208.58,183.27 207.01,184.05 205.31,183.9L194.85,183.01C192.24,182.78 190.31,180.49 190.53,177.88L190.54,177.79C190.76,175.18 193.06,173.25 195.66,173.47L206.12,174.36C208.73,174.58 210.66,176.88 210.44,179.49L210.43,179.58L210.49,179.5C212.04,177.39 215,176.94 217.11,178.48L225.57,184.7C227.62,186.2 228.11,189.05 226.71,191.14C229.14,190.64 231.57,192.11 232.24,194.53L235.01,204.65C235.7,207.18 234.22,209.78 231.69,210.47L231.6,210.5C229.08,211.19 226.47,209.71 225.78,207.18L223.01,197.06C222.64,195.71 222.89,194.34 223.59,193.25C222.34,193.49 221.01,193.22 219.9,192.41L211.45,186.2C210.07,185.19 209.4,183.57 209.53,181.99ZM192,200.14L200.72,194.29C202.89,192.84 205.84,193.42 207.29,195.59L207.35,195.67C208.8,197.84 208.22,200.79 206.05,202.24L197.34,208.09C195.16,209.55 192.22,208.97 190.76,206.79L190.71,206.72C189.25,204.54 189.83,201.6 192,200.14ZM234.94,180.58L243.65,174.74C245.83,173.28 248.77,173.86 250.23,176.03L250.28,176.11C251.74,178.29 251.16,181.23 248.99,182.69L240.27,188.53C238.09,189.99 235.15,189.41 233.7,187.24L233.64,187.16C232.18,184.99 232.76,182.04 234.94,180.58ZM175.66,175.54L175.77,165.05C175.8,162.43 177.94,160.33 180.56,160.36L180.65,160.36C183.27,160.39 185.37,162.53 185.34,165.15L185.24,175.64C185.21,178.26 183.07,180.36 180.45,180.33L180.35,180.33C177.74,180.3 175.64,178.16 175.66,175.54Z" style="fill:white;fill-rule:nonzero;"/>
                            </g>
                            <g id="g46" transform="matrix(0.283717,0,0,0.283717,2724.21,126.697)">
                                <path id="path46" d="M244.551,153.343L326.419,294.531L245.076,435.422L81.869,435.118L0.002,293.928L81.345,153.038L244.551,153.343ZM237.342,165.83L311.977,294.546L237.868,422.907L89.078,422.63L14.444,293.913L88.553,165.553L237.342,165.83Z" style="fill:rgb(102,194,165);"/>
                            </g>
                        </g>
                    </g>
                </g>
                <g id="g58" transform="matrix(0.234025,0,0,0.234025,-137.203,706.024)">
                    <g id="g59">
                        <g id="g581" serif:id="g58">
                            <g id="g55">
                                <g id="g49" transform="matrix(0.325581,0,0,0.325581,870.138,437.336)">
                                    <path id="path48" d="M920.942,999.067C920.942,1025.75 912.471,1048.94 895.53,1068.63C876.259,1091.19 850.899,1102.46 819.451,1102.46L819.451,1071.97C840.205,1071.97 857.199,1064.35 870.435,1049.1C882.823,1035.02 889.018,1018.34 889.018,999.067C889.018,978.632 881.976,961.372 867.894,947.29C852.858,932.36 833.428,924.895 809.604,924.895L808.016,924.895L808.016,1130.74L777.362,1130.74L777.362,1102.46L773.55,1102.46C742.102,1102.46 716.081,1092.49 695.486,1072.53C674.892,1052.57 664.594,1027.97 664.594,998.75C664.594,972.279 673.171,949.09 690.324,929.183C709.596,906.63 734.743,895.353 765.768,895.353L765.768,925.848C744.908,925.848 727.861,933.525 714.625,948.878C702.448,963.067 696.36,979.691 696.36,998.75C696.36,1019.29 703.19,1036.5 716.849,1050.37C731.673,1065.4 751.208,1072.92 775.456,1072.92L777.362,1072.92L777.362,868.035L808.016,868.035L808.016,895.353L811.192,895.353C843.593,895.353 869.985,905.306 890.368,925.213C910.751,945.119 920.942,969.737 920.942,999.067Z" style="fill:rgb(4,53,140);fill-rule:nonzero;"/>
                                </g>
                                <g id="g50" transform="matrix(0.325581,0,0,0.325581,870.138,437.336)">
                                    <path id="path49" d="M1116.62,1122L1086.12,1122L1086.12,944.431C1086.12,940.301 1085.22,938.237 1083.42,938.237C1081.94,938.237 1079.66,941.36 1076.59,947.607C1074.69,951.525 1073.52,953.908 1073.1,954.755L1006.39,1095C1001.42,1105.59 997.179,1112.74 993.685,1116.44C988.497,1122.27 981.985,1125.18 974.149,1125.18C965.043,1125.18 958.743,1121.74 955.249,1114.85C952.708,1109.66 951.437,1101.3 951.437,1089.76L951.437,894.241L981.932,894.241L981.614,1072.61L981.614,1076.42C982.038,1078.01 982.938,1078.8 984.314,1078.8C985.585,1078.8 988.814,1073.24 994.003,1062.12L1060.71,921.242C1065.69,910.653 1070.66,902.977 1075.64,898.212C1080.62,893.447 1086.6,891.065 1093.59,891.065C1102.27,891.065 1108.41,894.506 1112.01,901.389C1115.08,907.318 1116.62,915.683 1116.62,926.483L1116.62,1122Z" style="fill:rgb(4,53,140);fill-rule:nonzero;"/>
                                </g>
                                <g id="g51" transform="matrix(0.325581,0,0,0.325581,870.138,437.336)">
                                    <path id="path50" d="M1314.2,1081.66L1283.7,1081.66L1283.7,894.241L1314.2,894.241L1314.2,1081.66ZM1342.95,1122L1235.58,1122C1222.13,1122 1211.91,1121.26 1204.93,1119.78C1193.49,1117.13 1183.64,1112.02 1175.38,1104.45C1167.12,1096.88 1161.54,1088.14 1158.63,1078.24C1155.72,1068.34 1154.26,1056.88 1154.26,1043.86L1154.26,894.241L1184.76,894.241L1184.76,1039.41C1184.76,1049.15 1185.07,1055.88 1185.71,1059.58C1187.3,1068.26 1190.63,1075.36 1195.71,1080.86C1200.8,1086.37 1207.26,1090.02 1215.09,1091.82C1219.86,1092.88 1227.64,1093.41 1238.44,1093.41L1342.95,1093.41L1342.95,1122Z" style="fill:rgb(4,53,140);fill-rule:nonzero;"/>
                                </g>
                                <g id="g52" transform="matrix(0.325581,0,0,0.325581,870.138,437.336)">
                                    <path id="path51" d="M1521.47,1057.52C1521.47,1075.52 1516.02,1090.29 1505.11,1101.83C1492.4,1115.28 1473.34,1122 1447.93,1122L1407.27,1122L1407.27,1093.41L1446.34,1093.41C1457.99,1093.41 1466.88,1091.98 1473.03,1089.12C1484.89,1083.51 1490.82,1072.45 1490.82,1055.93C1490.82,1044.49 1487.03,1035.41 1479.46,1028.69C1471.89,1021.97 1461.8,1018.6 1449.2,1018.6L1407.27,1018.6L1407.27,990.014L1437.93,990.014C1449.57,990.014 1459.58,987.076 1467.94,981.199C1476.31,975.323 1480.49,966.984 1480.49,956.184C1480.49,945.278 1476.57,936.463 1468.74,929.739C1460.9,923.016 1451.27,919.654 1439.83,919.654C1427.65,919.654 1417.54,923.466 1409.5,931.089C1400.18,939.772 1395.52,951.896 1395.52,967.461L1395.52,1122L1365.02,1122L1365.02,966.825C1365.02,944.484 1371.85,926.272 1385.51,912.189C1399.17,898.106 1416.38,891.065 1437.13,891.065C1460.64,891.065 1479.22,897.894 1492.88,911.554C1504.95,923.73 1510.99,938.342 1510.99,955.39C1510.99,967.355 1508.71,977.149 1504.16,984.773C1500.77,990.808 1495.37,995.891 1487.96,1000.02C1498.55,1005.42 1506.78,1013.18 1512.65,1023.29C1518.53,1033.4 1521.47,1044.81 1521.47,1057.52Z" style="fill:rgb(4,53,140);fill-rule:nonzero;"/>
                                </g>
                                <g id="g53" transform="matrix(0.325581,0,0,0.325581,870.138,437.336)">
                                    <path id="path52" d="M1682.68,1122L1654.09,1122L1654.09,1007.49L1653.14,1007.8L1647.58,1016.86L1590.88,1100.56C1587.28,1106.17 1583.62,1111.68 1579.92,1117.08C1575.36,1122.48 1570.12,1125.18 1564.19,1125.18C1557.1,1125.18 1552.23,1122.37 1549.58,1116.76C1548.1,1113.58 1547.36,1109.24 1547.36,1103.74L1547.36,965.873L1575.95,965.873L1575.95,1081.34L1576.9,1081.02L1582.46,1071.97L1638.68,987.314C1645.67,976.726 1649.38,971.22 1649.8,970.796C1654.36,965.29 1659.65,962.537 1665.68,962.537C1671.4,962.537 1675.66,964.284 1678.47,967.778C1681.28,971.273 1682.68,976.037 1682.68,982.073L1682.68,1122Z" style="fill:rgb(4,53,140);fill-rule:nonzero;"/>
                                </g>
                                <g id="g54" transform="matrix(0.325581,0,0,0.325581,874.138,437.336)">
                                    <path id="path53" d="M1950.14,1122L1918.22,1122L1895.83,937.284L1846.91,1098.65C1844.15,1107.97 1841.56,1114.22 1839.12,1117.39C1835.42,1122.58 1830.23,1125.18 1823.56,1125.18C1816.99,1125.18 1811.91,1122.58 1808.31,1117.39C1805.66,1113.79 1802.91,1107.55 1800.05,1098.65L1751.29,937.284L1728.9,1122L1696.97,1122L1722.07,923.307C1723.13,914.201 1725.09,907.371 1727.94,902.818C1732.5,894.983 1739.54,891.065 1749.07,891.065C1757.33,891.065 1763.84,894.4 1768.61,901.071C1771.57,905.2 1774.59,912.401 1777.66,922.671L1823.56,1073.24L1869.46,922.671C1873.27,909.859 1877.35,901.389 1881.69,897.259C1886.03,893.13 1891.48,891.065 1898.05,891.065C1907.58,891.065 1914.62,894.877 1919.17,902.5C1921.82,907.053 1923.78,913.989 1925.05,923.307L1950.14,1122Z" style="fill:rgb(4,53,140);fill-rule:nonzero;"/>
                                </g>
                            </g>
                            <path id="path55" d="M1355.61,823.434C1329.85,911.796 1248.2,976.437 1151.57,976.437C1034.29,976.437 939.067,881.219 939.067,763.937C939.067,646.655 1034.29,551.437 1151.57,551.437C1249.13,551.437 1331.42,617.329 1356.34,707L1342.81,707C1318.28,624.597 1241.89,564.437 1151.57,564.437C1041.46,564.437 952.067,653.83 952.067,763.937C952.067,874.044 1041.46,963.437 1151.57,963.437C1240.96,963.437 1316.69,904.52 1342.03,823.434L1355.61,823.434Z" style="fill:rgb(4,53,140);"/>
                            <g id="g56" transform="matrix(1,0,0,1,112,0)">
                                <path id="path56" d="M1355.61,823.434C1329.85,911.796 1248.2,976.437 1151.57,976.437C1034.29,976.437 939.067,881.219 939.067,763.937C939.067,646.655 1034.29,551.437 1151.57,551.437C1249.13,551.437 1331.42,617.329 1356.34,707L1342.81,707C1318.28,624.597 1241.89,564.437 1151.57,564.437C1041.46,564.437 952.067,653.83 952.067,763.937C952.067,874.044 1041.46,963.437 1151.57,963.437C1240.96,963.437 1316.69,904.52 1342.03,823.434L1355.61,823.434Z" style="fill:rgb(4,53,140);"/>
                            </g>
                            <rect id="rect56" x="1124" y="698" width="337" height="9" style="fill:rgb(4,53,140);"/>
                            <g id="g57" transform="matrix(1,0,0,1,0,125.434)">
                                <rect id="rect57" x="1124" y="698" width="337" height="9" style="fill:rgb(4,53,140);"/>
                            </g>
                        </g>
                    </g>
                </g>
            </g>
        </g>
    </g>
</svg>
